<svg width="21" height="21" viewBox="0 0 21 21" fill="none" xmlns="http://www.w3.org/2000/svg">
<g clip-path="url(#clip0)">
<path d="M14.2502 7.54492H5.86832C5.63698 7.54492 5.44922 7.73269 5.44922 7.96403V14.6695C5.44922 15.682 6.17007 16.5277 7.12559 16.723V18.8604C7.12559 19.5536 7.68968 20.1177 8.38286 20.1177C9.07605 20.1177 9.64013 19.5536 9.64013 18.8604V16.765H10.4783V18.8604C10.4783 19.5536 11.0424 20.1177 11.7356 20.1177C12.4288 20.1177 12.9928 19.5536 12.9928 18.8604V16.723C13.9484 16.5286 14.6692 15.682 14.6692 14.6695V7.96403C14.6692 7.73186 14.4815 7.54492 14.2502 7.54492Z" fill="white"/>
<path d="M12.2527 2.23344L12.9593 0.584731C13.0506 0.37182 12.9517 0.126259 12.7388 0.0348716C12.5284 -0.0573412 12.2795 0.0415902 12.189 0.255326L11.4824 1.90486C11.034 1.75902 10.5562 1.67773 10.06 1.67773C9.56379 1.67773 9.08603 1.75902 8.63758 1.90486L7.92938 0.255326C7.83886 0.0415902 7.58992 -0.0581663 7.37952 0.0348716C7.16661 0.12622 7.06854 0.372645 7.15993 0.584731L7.86652 2.23344C6.42737 3.01464 5.44922 4.53927 5.44922 6.2877C5.44922 6.51904 5.63698 6.70681 5.86832 6.70681H14.2501C14.4814 6.70681 14.6692 6.51904 14.6692 6.2877C14.6692 4.53927 13.691 3.01464 12.2527 2.23344ZM8.38282 5.03043C8.15149 5.03043 7.96372 4.84267 7.96372 4.61133C7.96372 4.37999 8.15149 4.19223 8.38282 4.19223C8.61416 4.19223 8.80193 4.37999 8.80193 4.61133C8.80193 4.84267 8.61416 5.03043 8.38282 5.03043ZM11.7356 5.03043C11.5042 5.03043 11.3165 4.84267 11.3165 4.61133C11.3165 4.37999 11.5042 4.19223 11.7356 4.19223C11.9669 4.19223 12.1547 4.37999 12.1547 4.61133C12.1547 4.84267 11.9669 5.03043 11.7356 5.03043Z" fill="white"/>
<path d="M16.7641 7.54492C16.0709 7.54492 15.5068 8.109 15.5068 8.80219V12.9931C15.5068 13.6863 16.0709 14.2504 16.7641 14.2504C17.4573 14.2504 18.0214 13.6863 18.0214 12.9931V8.80219C18.0214 8.10904 17.4573 7.54492 16.7641 7.54492Z" fill="white"/>
<path d="M3.35297 7.54492C2.65979 7.54492 2.0957 8.109 2.0957 8.80219V12.9931C2.0957 13.6863 2.65979 14.2504 3.35297 14.2504C4.04616 14.2504 4.61024 13.6863 4.61024 12.9931V8.80219C4.61024 8.10904 4.04616 7.54492 3.35297 7.54492Z" fill="white"/>
</g>
<defs>
<clipPath id="clip0">
<rect width="20.1176" height="20.1176" fill="white"/>
</clipPath>
</defs>
</svg>
