<svg width="19" height="19" viewBox="0 0 19 19" fill="none" xmlns="http://www.w3.org/2000/svg">
<g clip-path="url(#clip0)">
<path d="M6.74034 18.6274C3.96802 18.6115 1.6748 12.9522 1.6748 10.0701C1.6748 5.36215 5.20656 4.33145 6.56768 4.33145C7.18107 4.33145 7.83605 4.57233 8.41376 4.7855C8.81774 4.93419 9.23555 5.08768 9.46792 5.08768C9.60701 5.08768 9.93477 4.95711 10.2242 4.84254C10.8413 4.59686 11.6092 4.2915 12.5035 4.2915C12.5051 4.2915 12.5072 4.2915 12.5088 4.2915C13.1766 4.2915 15.2012 4.43805 16.4184 6.26601L16.7036 6.69448L16.2932 7.00413C15.707 7.44646 14.6374 8.25333 14.6374 9.85162C14.6374 11.7446 15.8487 12.4726 16.4307 12.8227C16.6876 12.9773 16.9535 13.1366 16.9535 13.4852C16.9535 13.7127 15.1372 18.5992 12.4998 18.5992C11.8544 18.5992 11.3982 18.4052 10.9958 18.2342C10.5887 18.0609 10.2374 17.9117 9.65707 17.9117C9.36288 17.9117 8.99088 18.0508 8.59705 18.1985C8.05885 18.3993 7.44968 18.6274 6.75846 18.6274H6.74034Z" fill="white"/>
<path d="M12.7827 0C12.8514 2.47672 11.0802 4.19496 9.31099 4.0872C9.01946 2.11069 11.0799 0 12.7827 0Z" fill="white"/>
</g>
<defs>
<clipPath id="clip0">
<rect width="18.6275" height="18.6275" fill="white"/>
</clipPath>
</defs>
</svg>
