<svg width="74" height="74" viewBox="0 0 74 74" fill="none" xmlns="http://www.w3.org/2000/svg">
<g clip-path="url(#clip0)">
<path d="M33.52 36.4064L33.52 24.6936C33.52 22.6086 35.2101 20.9185 37.2952 20.9185C39.3802 20.9185 41.0703 22.6086 41.0703 24.6936L41.0703 36.4064L33.52 36.4064Z" fill="#FFBD8E"/>
<path d="M25.9692 36.4069L25.9692 27.6902C25.9692 25.6052 27.6594 23.915 29.7444 23.915C31.8294 23.915 33.5195 25.6052 33.5195 27.6902L33.5195 36.4069L25.9692 36.4069Z" fill="#FFBD8E"/>
<path d="M32.9416 36.4069L32.9416 24.6941C32.9416 22.2937 34.8945 20.3411 37.2949 20.3411C39.6955 20.3411 41.6484 22.294 41.6484 24.6941L41.6484 36.4072C41.6484 36.7263 41.3894 36.9853 41.0703 36.9853L33.52 36.9853C33.2003 36.985 32.9416 36.7263 32.9416 36.4069ZM40.4919 24.6941C40.4919 22.9311 39.0576 21.4973 37.2946 21.4973C35.5316 21.4973 34.0975 22.9314 34.0975 24.6941L34.0975 35.829L40.4916 35.829L40.4916 24.6941L40.4919 24.6941Z" fill="#434343"/>
<path d="M25.3918 36.4067L25.3918 27.69C25.3918 25.2893 27.3447 23.3364 29.7451 23.3364C32.1457 23.3364 34.0986 25.2893 34.0986 27.69L34.0986 36.4067C34.0986 36.7258 33.8396 36.9848 33.5205 36.9848L25.9702 36.9848C25.6505 36.9848 25.3918 36.7261 25.3918 36.4067ZM32.9421 27.69C32.9421 25.927 31.5078 24.4927 29.7448 24.4927C27.9818 24.4927 26.5477 25.927 26.5477 27.69L26.5477 35.8285L32.9418 35.8285L32.9418 27.69L32.9421 27.69Z" fill="#434343"/>
<path d="M72.8437 45.8245L72.8437 41.8175C70.8657 41.8175 69.262 40.2138 69.262 38.2357C69.262 36.2577 70.8657 34.6539 72.8437 34.6539L72.8437 30.647C70.8657 30.647 69.262 29.0432 69.262 27.0652L37.1015 27.0652C37.1015 29.0432 35.4977 30.647 33.5197 30.647L33.5197 34.6539C35.4977 34.6539 37.1015 36.2577 37.1015 38.2357C37.1015 40.2138 35.4977 41.8175 33.5197 41.8175L33.5197 45.8245C35.4977 45.8245 37.1015 47.4282 37.1015 49.4063L69.262 49.4063C69.262 47.4282 70.8657 45.8245 72.8437 45.8245Z" fill="#38AF41"/>
<path d="M70.6787 46.5571L35.6845 46.5571C36.5439 47.2116 37.1012 48.2424 37.1012 49.4058L69.2617 49.4058C69.2617 48.2424 69.819 47.2116 70.6787 46.5571Z" fill="#5D8E33"/>
<path d="M35.6845 29.9139L70.6787 29.9139C69.819 29.2597 69.262 28.2287 69.262 27.0652L37.1015 27.0652C37.1015 28.2287 36.5439 29.2597 35.6845 29.9139Z" fill="#99CA6F"/>
<path d="M64.3525 27.0652L64.3525 49.4063L42.0115 49.4063L42.0115 27.0652L64.3525 27.0652Z" fill="#FFCF24"/>
<path d="M64.3525 46.5571L64.3525 49.4058L42.0115 49.4058L42.0115 46.5571L64.3525 46.5571Z" fill="#DEA42E"/>
<path d="M64.3525 27.0652L64.3525 29.9139L42.0115 29.9139L42.0115 27.0652L64.3525 27.0652Z" fill="#FCE06A"/>
<path d="M41.4333 49.4063L41.4333 27.0652C41.4333 26.7461 41.6923 26.4871 42.0115 26.4871L64.3525 26.4871C64.6717 26.4871 64.9307 26.7461 64.9307 27.0652L64.9307 49.4063C64.9307 49.7257 64.6717 49.9844 64.3525 49.9844L42.0115 49.9844C41.6921 49.9844 41.4333 49.7257 41.4333 49.4063ZM42.5896 27.6433L42.5896 48.8281L63.7744 48.8281L63.7744 27.6433L42.5896 27.6433Z" fill="#434343"/>
<path d="M32.9419 45.8243L32.9419 41.8173C32.9419 41.4982 33.2006 41.2392 33.52 41.2392C35.176 41.2392 36.5236 39.8918 36.5236 38.2355C36.5236 36.5795 35.1763 35.2316 33.52 35.2316C33.2006 35.2316 32.9419 34.9726 32.9419 34.6535L32.9419 30.6468C32.9419 30.3276 33.2006 30.0686 33.52 30.0686C35.176 30.0686 36.5236 28.721 36.5236 27.0647C36.5236 26.7456 36.7826 26.4866 37.1017 26.4866L69.262 26.4866C69.5811 26.4866 69.8401 26.7456 69.8401 27.0647C69.8401 28.7207 71.1874 30.0686 72.8437 30.0686C73.1632 30.0686 73.4219 30.3276 73.4219 30.6468L73.4219 34.6535C73.4219 34.9726 73.1632 35.2316 72.8437 35.2316C71.1877 35.2316 69.8401 36.5792 69.8401 38.2355C69.8401 39.8918 71.1874 41.2392 72.8437 41.2392C73.1632 41.2392 73.4219 41.4982 73.4219 41.8173L73.4219 45.8243C73.4219 46.1437 73.1632 46.4024 72.8437 46.4024C71.1877 46.4024 69.8401 47.7497 69.8401 49.4061C69.8401 49.7255 69.5811 49.9842 69.262 49.9842L37.1015 49.9842C36.7823 49.9842 36.5233 49.7255 36.5233 49.4061C36.5233 47.75 35.176 46.4024 33.5197 46.4024C33.2006 46.4024 32.9419 46.1437 32.9419 45.8243ZM34.0981 42.3552L34.0981 45.2863C35.9302 45.5422 37.3839 46.9958 37.6397 48.8279L68.724 48.8279C68.9799 46.9958 70.4335 45.5422 72.2656 45.2863L72.2656 42.3552C70.2445 42.0728 68.6839 40.3332 68.6839 38.2355C68.6839 36.1378 70.2442 34.3979 72.2656 34.1155L72.2656 31.1847C70.4335 30.9289 68.9799 29.4752 68.724 27.6428L37.6397 27.6428C37.3839 29.4752 35.9302 30.9289 34.0981 31.1847L34.0981 34.1155C36.1192 34.3979 37.6799 36.1378 37.6799 38.2355C37.6799 40.3332 36.1192 42.0731 34.0981 42.3552Z" fill="#434343"/>
<path d="M32.3047 52.1695L37.0502 48.8262C36.7725 47.1245 35.3 45.824 33.5196 45.824L33.5196 41.8171C34.7924 41.8171 35.9093 41.1528 36.5444 40.1523L29.5124 40.1523C28.8935 40.1523 28.392 39.6508 28.392 39.0319C28.392 38.4131 28.8938 37.9115 29.5124 37.9115L41.712 37.9115C43.5154 37.9115 45.0622 36.5006 45.0951 34.6977C45.1287 32.8607 43.6498 31.3611 41.8204 31.3611L1.15591 31.3611L1.15591 43.0829L17.7704 52.4384C18.5182 52.8595 19.3622 53.0807 20.2204 53.0807L29.4288 53.0807C30.4585 53.081 31.463 52.7627 32.3047 52.1695Z" fill="#FF9F70"/>
<path d="M32.3052 52.1695L37.0508 48.8262C36.9184 48.0148 36.5123 47.2968 35.9327 46.7655L32.3055 49.3211C31.4638 49.9143 30.4593 50.2325 29.4296 50.2325L20.2213 50.2325C19.3628 50.2325 18.519 50.0114 17.7712 49.5902L1.15644 40.2341L1.15644 43.0828L17.7709 52.4383C18.5187 52.8595 19.3628 53.0806 20.221 53.0806L29.4294 53.0806C30.459 53.0809 31.4635 52.7627 32.3052 52.1695Z" fill="#E18152"/>
<path d="M0.578025 43.0829L0.578026 31.3611C0.578026 31.042 0.836739 30.783 1.15615 30.783L41.8209 30.783C42.8635 30.783 43.8397 31.1926 44.5704 31.9366C45.3006 32.6807 45.6865 33.6661 45.6735 34.7081C45.6351 36.7934 43.8582 38.4897 41.7122 38.4897L29.5126 38.4897C29.2137 38.4897 28.9703 38.733 28.9703 39.0319C28.9703 39.3308 29.2137 39.5742 29.5126 39.5742L36.5446 39.5742C36.7554 39.5742 36.9496 39.689 37.0514 39.874C37.1531 40.0581 37.1456 40.2836 37.0329 40.4622C36.3692 41.5072 35.2996 42.1888 34.0983 42.3553L34.0983 45.2855C35.8844 45.5321 37.3231 46.906 37.6211 48.7332C37.6569 48.952 37.5644 49.1717 37.3838 49.2989L32.6382 52.6421L32.6379 52.6421C31.6933 53.3076 30.5842 53.6591 29.4291 53.6591L20.2207 53.6591C19.2653 53.6591 18.3201 53.4113 17.487 52.9422L0.872581 43.5867C0.690761 43.4844 0.578025 43.2918 0.578025 43.0829ZM1.73428 31.9392L1.73428 42.7449L18.0542 51.9345C18.7141 52.3063 19.4633 52.5028 20.2204 52.5028L29.4288 52.5028C30.3439 52.5028 31.2233 52.2242 31.9717 51.6972L36.403 48.575C36.0396 47.2974 34.8779 46.4022 33.5196 46.4022C33.2002 46.4022 32.9415 46.1434 32.9415 45.824L32.9415 41.817C32.9415 41.4979 33.2002 41.2389 33.5196 41.2389C34.1278 41.2389 34.7068 41.058 35.1936 40.7305L29.5123 40.7305C28.5758 40.7305 27.8138 39.9685 27.8138 39.0319C27.8138 38.0954 28.5758 37.3334 29.5123 37.3334L41.7119 37.3334C43.2321 37.3334 44.4904 36.1465 44.517 34.687C44.5248 33.9652 44.2562 33.2675 43.7452 32.7469C43.2335 32.226 42.5502 31.9392 41.8206 31.9392L1.73428 31.9392Z" fill="#434343"/>
<path d="M54.8628 43.5365L54.2358 41.4992C55.2779 42.075 56.6145 41.923 57.4987 41.039C58.5694 39.9683 58.5694 38.2322 57.4987 37.1615L53.2718 32.9346L49.0448 37.1615C47.9741 38.2322 47.9741 39.9683 49.0448 41.039C49.9288 41.923 51.2654 42.075 52.3078 41.4992L51.6808 43.5365L54.8628 43.5365Z" fill="#FF2F04"/>
<path d="M47.6658 39.1007C47.6658 38.2506 47.9893 37.4004 48.6365 36.7532L52.8634 32.5263C53.0892 32.3005 53.4552 32.3005 53.6809 32.5263L57.9079 36.7532C59.2026 38.0479 59.2026 40.1537 57.9079 41.4482C57.1638 42.1922 56.1197 42.5212 55.1144 42.387L55.4156 43.367C55.4696 43.5418 55.4373 43.7326 55.328 43.8803C55.219 44.028 55.0464 44.1151 54.8632 44.1151L51.6812 44.1151C51.4976 44.1151 51.3253 44.0278 51.2164 43.8803C51.1071 43.7323 51.075 43.5418 51.1288 43.367L51.4303 42.387C50.4246 42.5212 49.3805 42.1922 48.6365 41.4482C47.9896 40.801 47.6658 39.9508 47.6658 39.1007ZM53.2725 33.7525L49.4542 37.5707C48.6108 38.4142 48.6108 39.7872 49.4542 40.6307C50.1315 41.3077 51.1903 41.4568 52.0289 40.9935C52.235 40.8796 52.49 40.9021 52.6727 41.0507C52.8556 41.1996 52.9308 41.4453 52.8606 41.6696L52.464 42.9588L54.0804 42.9588L53.6841 41.6696C53.6136 41.4456 53.689 41.1996 53.872 41.0507C54.055 40.9021 54.3099 40.8796 54.516 40.9935C55.3546 41.4571 56.4131 41.3077 57.0904 40.6307C57.9339 39.7872 57.9339 38.4142 57.0904 37.5707L53.2725 33.7525Z" fill="#434343"/>
<path d="M31.2812 33.5134C31.2812 33.1943 31.5402 32.9353 31.8594 32.9353L35.3281 32.9353C35.6475 32.9353 35.9062 33.1943 35.9062 33.5134C35.9062 33.8326 35.6475 34.0916 35.3281 34.0916L31.8594 34.0916C31.54 34.0916 31.2812 33.8326 31.2812 33.5134Z" fill="#434343"/>
</g>
<defs>
<clipPath id="clip0">
<rect width="74" height="74" fill="white" transform="translate(74) rotate(90)"/>
</clipPath>
</defs>
</svg>
