<svg width="80" height="50" viewBox="0 0 80 50" fill="none" xmlns="http://www.w3.org/2000/svg">
<path d="M33.4542 10.2853L29.8051 12.2038L30.502 8.14033L27.5498 5.26283L31.6295 4.67002L33.4542 0.973145L35.2786 4.67002L39.3582 5.26283L36.4061 8.14033L37.1029 12.2038L33.4542 10.2853Z" fill="#FFCF24"/>
<path d="M46.4853 9.12256L43.9844 10.4372L44.4619 7.65225L42.4385 5.67975L45.2347 5.2735L46.4853 2.73975L47.736 5.2735L50.5322 5.67975L48.5088 7.65225L48.9866 10.4372L46.4853 9.12256Z" fill="#FFCF24"/>
<path d="M20.4238 9.12256L17.9226 10.4372L18.4004 7.65225L16.377 5.67975L19.1732 5.2735L20.4238 2.73975L21.6745 5.2735L24.4707 5.67975L22.4473 7.65225L22.9251 10.4372L20.4238 9.12256Z" fill="#FFCF24"/>
<path d="M37.1032 12.8287C37.0038 12.8287 36.9038 12.8049 36.8123 12.7571L33.4541 10.9918L30.096 12.7571C29.8857 12.8674 29.6307 12.8493 29.4376 12.7096C29.2454 12.57 29.1488 12.3328 29.1888 12.0984L29.8304 8.35901L27.1135 5.71026C26.9432 5.54433 26.8819 5.29589 26.9554 5.06964C27.0288 4.84339 27.2244 4.67839 27.4601 4.64433L31.2144 4.09901L32.8938 0.696826C32.9991 0.483388 33.216 0.348389 33.4541 0.348389C33.6923 0.348389 33.9094 0.483701 34.0147 0.696826L35.6935 4.09901L39.4482 4.64433C39.6838 4.67839 39.8794 4.8437 39.9529 5.06964C40.0263 5.29589 39.9651 5.54433 39.7947 5.71058L37.0779 8.35901L37.7194 12.0984C37.7594 12.3328 37.6629 12.57 37.4707 12.7096C37.3619 12.7884 37.2329 12.8287 37.1032 12.8287ZM28.8932 5.69901L30.9385 7.69307C31.0857 7.83651 31.1529 8.04339 31.1182 8.2462L30.6354 11.0612L33.1635 9.73214C33.3454 9.6362 33.5632 9.6362 33.7451 9.73214L36.2732 11.0612L35.7901 8.2462C35.7557 8.0437 35.8226 7.83651 35.9697 7.69276L38.0154 5.69901L35.1888 5.2887C34.9851 5.25901 34.8091 5.1312 34.7179 4.94651L33.4541 2.38558L32.1898 4.94651C32.0988 5.1312 31.9229 5.25901 31.7191 5.2887L28.8932 5.69901Z" fill="#434343"/>
<path d="M43.9834 11.0622C43.854 11.0622 43.7249 11.0219 43.6159 10.9429C43.4234 10.8032 43.3271 10.566 43.3671 10.3316L43.7896 7.87037L42.0015 6.12756C41.8309 5.96162 41.7696 5.71318 41.8431 5.48662C41.9165 5.26037 42.1121 5.09537 42.3474 5.06131L44.8187 4.70225L45.924 2.46318C46.0293 2.24975 46.2462 2.11475 46.4843 2.11475C46.7224 2.11475 46.9393 2.25006 47.0446 2.46318L48.1499 4.70225L50.6212 5.06131C50.8565 5.09537 51.0521 5.26068 51.1256 5.48662C51.199 5.71318 51.1378 5.96131 50.9674 6.12756L49.1793 7.87037L49.6012 10.3316C49.6412 10.566 49.5446 10.8032 49.3524 10.9429C49.1599 11.0829 48.9049 11.101 48.6943 10.9904L46.484 9.82818L44.2737 10.9904C44.1828 11.0385 44.0828 11.0622 43.9834 11.0622ZM46.4846 8.49725C46.5843 8.49725 46.6846 8.521 46.7756 8.56881L48.1559 9.29443L47.8921 7.75756C47.8578 7.55506 47.9246 7.34787 48.0718 7.20412L49.1884 6.116L47.6453 5.89162C47.4418 5.86193 47.2659 5.73412 47.1749 5.54943L46.4846 4.151L45.7943 5.54943C45.7034 5.73412 45.5274 5.86193 45.324 5.89162L43.7806 6.116L44.8971 7.20412C45.0446 7.34787 45.1121 7.55475 45.0768 7.75756L44.8131 9.29443L46.1934 8.56881C46.2846 8.52131 46.3849 8.49725 46.4846 8.49725Z" fill="#434343"/>
<path d="M17.9228 11.0622C17.7935 11.0622 17.6644 11.0219 17.5553 10.9429C17.3631 10.8032 17.2666 10.566 17.3066 10.3316L17.7288 7.87037L15.9406 6.12756C15.7703 5.96131 15.7091 5.71318 15.7825 5.48662C15.856 5.26037 16.0516 5.09537 16.2869 5.06131L18.7581 4.70225L19.8635 2.46318C19.9688 2.24975 20.1856 2.11475 20.4238 2.11475C20.6619 2.11475 20.8791 2.25006 20.9844 2.46318L22.0891 4.70225L24.5603 5.06131C24.7956 5.09537 24.9913 5.26068 25.0647 5.48662C25.1381 5.71318 25.0769 5.96131 24.9066 6.12756L23.1185 7.87037L23.5406 10.3316C23.5806 10.566 23.4841 10.8032 23.2919 10.9429C23.0994 11.0829 22.8444 11.101 22.6338 10.9904L20.4238 9.82818L18.2135 10.9904C18.1222 11.0385 18.0225 11.0622 17.9228 11.0622ZM17.7203 6.11631L18.8369 7.20443C18.9841 7.34818 19.0513 7.55506 19.0166 7.75787L18.7528 9.29474L20.1331 8.56912C20.315 8.47318 20.5328 8.47318 20.7147 8.56912L22.0947 9.29474L21.831 7.75787C21.7966 7.55537 21.8635 7.34818 22.0106 7.20443L23.1272 6.11631L21.5841 5.89193C21.3806 5.86225 21.2047 5.73443 21.1135 5.54975L20.4238 4.15162L19.7335 5.54975C19.6425 5.73443 19.4666 5.86225 19.2631 5.89193L17.7203 6.11631Z" fill="#434343"/>
<path d="M64.1528 14.6543H2.83906C1.96156 14.6543 1.25 15.3659 1.25 16.2434V44.5318V47.4374C1.25 48.3152 1.96156 49.0265 2.83906 49.0265H64.1525C65.0303 49.0265 65.7416 48.3149 65.7416 47.4374V44.5318V16.2434C65.7419 15.3659 65.0303 14.6543 64.1528 14.6543Z" fill="#FFCF24"/>
<path d="M64.1531 14.6543H60.9746C61.8524 14.6543 62.5637 15.3659 62.5637 16.2434V44.5318V47.4374C62.5637 48.3152 61.8521 49.0265 60.9746 49.0265H64.1531C65.0309 49.0265 65.7421 48.3149 65.7421 47.4374V44.5318V16.2434C65.7421 15.3659 65.0306 14.6543 64.1531 14.6543Z" fill="#DEA42E"/>
<path d="M2.83906 14.6543H6.0175C5.13969 14.6543 4.42844 15.3659 4.42844 16.2434V44.5318V47.4374C4.42844 48.3152 5.14 49.0265 6.0175 49.0265H2.83906C1.96156 49.0268 1.25 48.3152 1.25 47.4374V44.5318V16.2434C1.25 15.3659 1.96156 14.6543 2.83906 14.6543Z" fill="#FCE06A"/>
<path d="M20.2729 41.4913H6.90883C6.08008 41.4913 5.4082 40.8194 5.4082 39.9907V19.1957C5.4082 18.3669 6.08008 17.6951 6.90883 17.6951H20.2726C21.1013 17.6951 21.7732 18.3669 21.7732 19.1957V39.9907C21.7732 40.8194 21.1013 41.4913 20.2729 41.4913Z" fill="#F4EFED"/>
<path d="M40.1778 41.4913H26.8141C25.9854 41.4913 25.3135 40.8194 25.3135 39.9907V19.1957C25.3135 18.3669 25.9854 17.6951 26.8141 17.6951H40.1778C41.0066 17.6951 41.6785 18.3669 41.6785 19.1957V39.9907C41.6785 40.8194 41.0066 41.4913 40.1778 41.4913Z" fill="#F4EFED"/>
<path d="M60.0831 41.4913H46.7194C45.8906 41.4913 45.2188 40.8194 45.2188 39.9907V19.1957C45.2188 18.3669 45.8906 17.6951 46.7194 17.6951H60.0831C60.9119 17.6951 61.5837 18.3669 61.5837 19.1957V39.9907C61.5834 40.8194 60.9119 41.4913 60.0831 41.4913Z" fill="#F4EFED"/>
<path d="M75.5253 33.3412H71.2734V30.3402H74.0247V14.6543H77.0256V31.8405C77.0259 32.6693 76.3544 33.3412 75.5253 33.3412Z" fill="#D6D1CF"/>
<path d="M69.7738 41.5098H65.7422V22.1716H69.7738C70.6025 22.1716 71.2744 22.8435 71.2744 23.6723V40.0091C71.2744 40.8379 70.6025 41.5098 69.7738 41.5098Z" fill="#5D8E33"/>
<path d="M65.7419 45.1571H1.25C0.904687 45.1571 0.625 44.8774 0.625 44.5321V16.2434C0.625 15.0227 1.61844 14.0293 2.83906 14.0293H64.1528C65.3734 14.0293 66.3669 15.0227 66.3669 16.2434V44.5318C66.3669 44.8771 66.0872 45.1571 65.7419 45.1571ZM1.875 43.9071H65.1169V16.2434C65.1169 15.7118 64.6844 15.2793 64.1528 15.2793H2.83906C2.3075 15.2796 1.875 15.7118 1.875 16.2434V43.9071Z" fill="#434343"/>
<path d="M7.9082 38.9336C7.5632 38.9336 7.2832 38.6536 7.2832 38.3086V34.5586C7.2832 34.2133 7.5632 33.9336 7.9082 33.9336C8.2532 33.9336 8.5332 34.2133 8.5332 34.5586V38.3086C8.5332 38.6536 8.2532 38.9336 7.9082 38.9336Z" fill="#434343"/>
<path d="M69.7734 42.1345H65.7422C65.3972 42.1345 65.1172 41.8545 65.1172 41.5095V22.1714C65.1172 21.8264 65.3972 21.5464 65.7422 21.5464H69.7734C70.9456 21.5464 71.8991 22.4998 71.8991 23.672V40.0089C71.8991 41.1811 70.9456 42.1345 69.7734 42.1345ZM66.3672 40.8845H69.7734C70.2563 40.8845 70.6491 40.4917 70.6491 40.0089V23.672C70.6491 23.1892 70.2563 22.7964 69.7734 22.7964H66.3672V40.8845Z" fill="#434343"/>
<path d="M75.5263 33.9659H71.2744C70.9291 33.9659 70.6494 33.6859 70.6494 33.3409V30.3396C70.6494 29.9943 70.9291 29.7146 71.2744 29.7146H73.401V14.6543C73.401 14.3093 73.6807 14.0293 74.026 14.0293H77.0272C77.3722 14.0293 77.6522 14.3093 77.6522 14.6543V31.8405C77.6516 33.0127 76.6985 33.9659 75.5263 33.9659ZM71.8991 32.7159H75.526C76.0088 32.7159 76.4016 32.323 76.4016 31.8402V15.2793H74.6503V30.3399C74.6503 30.6849 74.3703 30.9649 74.0253 30.9649H71.8988V32.7159H71.8991Z" fill="#434343"/>
<path d="M20.2729 42.1164H6.90883C5.73664 42.1164 4.7832 41.1629 4.7832 39.9908V19.1954C4.7832 18.0233 5.73664 17.0698 6.90883 17.0698H20.2729C21.4448 17.0698 22.3982 18.0233 22.3982 19.1954V39.9908C22.3982 41.1629 21.4448 42.1164 20.2729 42.1164ZM6.90883 18.3198C6.42602 18.3198 6.0332 18.7126 6.0332 19.1954V39.9908C6.0332 40.4736 6.42602 40.8664 6.90883 40.8664H20.2729C20.7554 40.8664 21.1482 40.4736 21.1482 39.9908V19.1954C21.1482 18.7126 20.7554 18.3198 20.2729 18.3198H6.90883Z" fill="#434343"/>
<path d="M40.1779 42.1164H26.8141C25.6419 42.1164 24.6885 41.1629 24.6885 39.9908V19.1954C24.6885 18.0233 25.6419 17.0698 26.8141 17.0698H40.1782C41.3504 17.0698 42.3038 18.0233 42.3038 19.1954V39.9908C42.3035 41.1629 41.35 42.1164 40.1779 42.1164ZM26.8141 18.3198C26.3313 18.3198 25.9385 18.7126 25.9385 19.1954V39.9908C25.9385 40.4736 26.3313 40.8664 26.8141 40.8664H40.1782C40.661 40.8664 41.0538 40.4736 41.0538 39.9908V19.1954C41.0538 18.7126 40.661 18.3198 40.1782 18.3198H26.8141Z" fill="#434343"/>
<path d="M60.0834 42.1164H46.7194C45.5472 42.1164 44.5938 41.1629 44.5938 39.9908V19.1954C44.5938 18.0233 45.5472 17.0698 46.7194 17.0698H60.0834C61.2556 17.0698 62.2091 18.0233 62.2091 19.1954V39.9908C62.2087 41.1629 61.2556 42.1164 60.0834 42.1164ZM46.7194 18.3198C46.2366 18.3198 45.8437 18.7126 45.8437 19.1954V39.9908C45.8437 40.4736 46.2366 40.8664 46.7194 40.8664H60.0834C60.5662 40.8664 60.9591 40.4736 60.9591 39.9908V19.1954C60.9591 18.7126 60.5662 18.3198 60.0834 18.3198H46.7194Z" fill="#434343"/>
<path d="M64.1528 49.6517H2.83906C1.61844 49.6517 0.625 48.6582 0.625 47.4376V44.532C0.625 44.187 0.904687 43.907 1.25 43.907H65.7419C66.0872 43.907 66.3669 44.187 66.3669 44.532V47.4376C66.3669 48.6582 65.3734 49.6517 64.1528 49.6517ZM1.875 45.157V47.4376C1.875 47.9692 2.3075 48.4017 2.83906 48.4017H64.1528C64.6844 48.4017 65.1169 47.9692 65.1169 47.4376V45.157H1.875Z" fill="#434343"/>
<path d="M75.5258 17.8785C77.3064 17.8785 78.7499 16.4351 78.7499 14.6545C78.7499 12.8739 77.3064 11.4304 75.5258 11.4304C73.7452 11.4304 72.3018 12.8739 72.3018 14.6545C72.3018 16.4351 73.7452 17.8785 75.5258 17.8785Z" fill="#E12579"/>
<path d="M75.5258 18.5038C73.4033 18.5038 71.6768 16.7772 71.6768 14.6547C71.6768 12.5322 73.4033 10.8057 75.5258 10.8057C77.6483 10.8057 79.3749 12.5322 79.3749 14.6547C79.3749 16.7772 77.6483 18.5038 75.5258 18.5038ZM75.5258 12.0554C74.0927 12.0554 72.9268 13.2213 72.9268 14.6544C72.9268 16.0875 74.0927 17.2535 75.5258 17.2535C76.959 17.2535 78.1249 16.0875 78.1249 14.6544C78.1249 13.2216 76.959 12.0554 75.5258 12.0554Z" fill="#434343"/>
<path d="M53.5635 22.8958C53.952 22.8958 54.2595 23.2033 54.2595 23.5917V23.9476C55.2145 24.0611 56.0238 24.3686 56.7682 24.8379C57.0273 24.9836 57.2538 25.2264 57.2538 25.6148C57.2538 26.1167 56.8491 26.5051 56.3473 26.5051C56.1854 26.5051 56.0235 26.4567 55.8616 26.3595C55.2951 26.0195 54.7448 25.7767 54.1945 25.6473V28.7551C56.6548 29.3701 57.707 30.3576 57.707 32.0898C57.707 33.8704 56.3148 35.052 54.2591 35.2464V36.2176C54.2591 36.6061 53.9516 36.9136 53.5632 36.9136C53.1748 36.9136 52.851 36.6061 52.851 36.2176V35.2139C51.637 35.0845 50.5201 34.6473 49.5326 33.9514C49.2573 33.7732 49.0957 33.5145 49.0957 33.1745C49.0957 32.6726 49.4841 32.2842 49.986 32.2842C50.1804 32.2842 50.3745 32.3489 50.5204 32.4623C51.281 33.0126 52.0257 33.3848 52.916 33.5467V30.3579C50.5526 29.7426 49.452 28.8526 49.452 27.0233C49.452 25.2914 50.8279 24.0933 52.8513 23.9317V23.5917C52.851 23.2033 53.1748 22.8958 53.5635 22.8958ZM52.916 28.4154V25.5504C51.8801 25.6476 51.362 26.1979 51.362 26.9101C51.362 27.5898 51.6695 28.0108 52.916 28.4154ZM54.1945 30.6654V33.6114C55.2304 33.4979 55.797 32.9801 55.797 32.2033C55.797 31.4911 55.441 31.0539 54.1945 30.6654Z" fill="#434343"/>
<path d="M33.6579 22.8958C34.0464 22.8958 34.3539 23.2033 34.3539 23.5917V23.9476C35.3089 24.0611 36.1182 24.3686 36.8629 24.8379C37.122 24.9836 37.3486 25.2264 37.3486 25.6148C37.3486 26.1167 36.9439 26.5051 36.442 26.5051C36.2801 26.5051 36.1182 26.4567 35.9564 26.3595C35.3898 26.0195 34.8395 25.7767 34.2892 25.6473V28.7551C36.7495 29.3701 37.8017 30.3576 37.8017 32.0898C37.8017 33.8704 36.4095 35.052 34.3539 35.2464V36.2176C34.3539 36.6061 34.0464 36.9136 33.6579 36.9136C33.2695 36.9136 32.9457 36.6061 32.9457 36.2176V35.2139C31.7317 35.0845 30.6148 34.6473 29.6273 33.9514C29.352 33.7732 29.1904 33.5145 29.1904 33.1745C29.1904 32.6726 29.5789 32.2842 30.0807 32.2842C30.2751 32.2842 30.4692 32.3489 30.6148 32.4623C31.3754 33.0126 32.1201 33.3848 33.0104 33.5467V30.3579C30.647 29.7426 29.5464 28.8526 29.5464 27.0233C29.5464 25.2914 30.9223 24.0933 32.9457 23.9317V23.5917C32.9457 23.2033 33.2695 22.8958 33.6579 22.8958ZM33.0104 28.4154V25.5504C31.9745 25.6476 31.4564 26.1979 31.4564 26.9101C31.4564 27.5898 31.7639 28.0108 33.0104 28.4154ZM34.2892 30.6654V33.6114C35.3251 33.4979 35.8917 32.9801 35.8917 32.2033C35.8917 31.4911 35.5357 31.0539 34.2892 30.6654Z" fill="#434343"/>
<path d="M13.752 22.8958C14.1404 22.8958 14.4479 23.2033 14.4479 23.5917V23.9476C15.4029 24.0611 16.2123 24.3686 16.9567 24.8379C17.2157 24.9836 17.4423 25.2264 17.4423 25.6148C17.4423 26.1167 17.0376 26.5051 16.5357 26.5051C16.3739 26.5051 16.212 26.4567 16.0501 26.3595C15.4836 26.0195 14.9332 25.7767 14.3829 25.6473V28.7551C16.8432 29.3701 17.8954 30.3576 17.8954 32.0898C17.8954 33.8704 16.5032 35.052 14.4476 35.2464V36.2176C14.4476 36.6061 14.1401 36.9136 13.7517 36.9136C13.3632 36.9136 13.0395 36.6061 13.0395 36.2176V35.2139C11.8254 35.0845 10.7086 34.6473 9.72105 33.9514C9.44574 33.7732 9.28418 33.5145 9.28418 33.1745C9.28418 32.6726 9.67262 32.2842 10.1745 32.2842C10.3689 32.2842 10.5629 32.3489 10.7086 32.4623C11.4692 33.0126 12.2139 33.3848 13.1042 33.5467V30.3579C10.7407 29.7426 9.64012 28.8526 9.64012 27.0233C9.64012 25.2914 11.0161 24.0933 13.0395 23.9317V23.5917C13.0398 23.2033 13.3636 22.8958 13.752 22.8958ZM13.1045 28.4154V25.5504C12.0686 25.6476 11.5504 26.1979 11.5504 26.9101C11.5507 27.5898 11.8582 28.0108 13.1045 28.4154ZM14.3832 30.6654V33.6114C15.4192 33.4979 15.9857 32.9801 15.9857 32.2033C15.9857 31.4911 15.6298 31.0539 14.3832 30.6654Z" fill="#434343"/>
</svg>
