<svg width="56" height="56" viewBox="0 0 56 56" fill="none" xmlns="http://www.w3.org/2000/svg">
<path d="M39.6912 55.125H6.0857C5.0077 55.125 4.13379 54.2511 4.13379 53.1731V2.82691C4.13379 1.74891 5.0077 0.875 6.0857 0.875H39.6909C40.7689 0.875 41.6428 1.74891 41.6428 2.82691V53.1731C41.6431 54.2511 40.7692 55.125 39.6912 55.125Z" fill="#FF2F04"/>
<path d="M39.6914 0.875H37.5039C38.5819 0.875 39.4558 1.74891 39.4558 2.82691V53.1731C39.4558 54.2511 38.5819 55.125 37.5039 55.125H39.6914C40.7694 55.125 41.6433 54.2511 41.6433 53.1731V2.82691C41.6433 1.74891 40.7694 0.875 39.6914 0.875Z" fill="#D6D1CF"/>
<path d="M6.0857 55.125H8.2732C7.1952 55.125 6.32129 54.2511 6.32129 53.1731V2.82691C6.32129 1.74891 7.1952 0.875 8.2732 0.875H6.0857C5.0077 0.875 4.13379 1.74891 4.13379 2.82691V53.1731C4.13379 54.2511 5.0077 55.125 6.0857 55.125Z" fill="#FF61B5"/>
<path d="M39.6912 55.5625H6.0857C4.76816 55.5625 3.69629 54.4906 3.69629 53.1731V2.82691C3.69629 1.50938 4.76816 0.4375 6.0857 0.4375H39.6909C41.0085 0.4375 42.0803 1.50938 42.0803 2.82691V53.1731C42.0806 54.4906 41.0087 55.5625 39.6912 55.5625ZM6.0857 1.3125C5.25073 1.3125 4.57129 1.99194 4.57129 2.82691V53.1731C4.57129 54.0081 5.25051 54.6875 6.0857 54.6875H39.6909C40.5259 54.6875 41.2053 54.0083 41.2053 53.1731V2.82691C41.2053 1.99194 40.5261 1.3125 39.6909 1.3125H6.0857Z" fill="#434343"/>
<path d="M7.59621 7.69367C7.75262 8.17186 8.20478 8.51967 8.73503 8.51967C9.39565 8.51967 9.93465 7.98067 9.93465 7.3288V3.87736C9.93465 3.60786 10.1521 3.39917 10.4216 3.39917C10.6823 3.39917 10.8998 3.60786 10.8998 3.87736V7.32858C10.8998 8.51945 9.92612 9.48436 8.73503 9.48436C7.77865 9.48436 6.96162 8.85851 6.68337 7.9892C6.59631 7.72845 6.74418 7.45895 6.98765 7.38939C7.2484 7.30233 7.5179 7.44145 7.59621 7.69367Z" fill="#434343"/>
<path d="M37.8885 48.6064C37.7321 48.1282 37.28 47.7806 36.7497 47.7806C36.0891 47.7806 35.5501 48.3196 35.5501 48.9715V52.4227C35.5501 52.6922 35.3326 52.9009 35.0631 52.9009C34.8024 52.9009 34.585 52.6922 34.585 52.4227V48.9715C34.585 47.7806 35.5586 46.8157 36.7497 46.8157C37.7061 46.8157 38.5231 47.4415 38.8014 48.3108C38.8884 48.5716 38.7406 48.8411 38.4971 48.9106C38.2363 48.9975 37.9668 48.8586 37.8885 48.6064Z" fill="#434343"/>
<path d="M49.9148 55.125H16.3093C15.2313 55.125 14.3574 54.2511 14.3574 53.1731V2.82691C14.3574 1.74891 15.2313 0.875 16.3093 0.875H49.9148C50.9928 0.875 51.8667 1.74891 51.8667 2.82691V53.1731C51.8667 54.2511 50.9928 55.125 49.9148 55.125Z" fill="#F4EFED"/>
<path d="M49.9141 0.875H47.7266C48.8046 0.875 49.6785 1.74891 49.6785 2.82691V53.1731C49.6785 54.2511 48.8046 55.125 47.7266 55.125H49.9141C50.9921 55.125 51.866 54.2511 51.866 53.1731V2.82691C51.866 1.74891 50.9921 0.875 49.9141 0.875Z" fill="#D6D1CF"/>
<path d="M16.3093 55.125H18.4968C17.4188 55.125 16.5449 54.2511 16.5449 53.1731V2.82691C16.5449 1.74891 17.4188 0.875 18.4968 0.875H16.3093C15.2313 0.875 14.3574 1.74891 14.3574 2.82691V53.1731C14.3574 54.2511 15.2313 55.125 16.3093 55.125Z" fill="white"/>
<path d="M36.0079 36.5427L34.8669 32.8347C36.7637 33.8827 39.1966 33.6058 40.8055 31.9969C42.7544 30.048 42.7544 26.8884 40.8055 24.9398L33.1121 17.2463L25.4187 24.9398C23.4698 26.8886 23.4698 30.0482 25.4187 31.9969C27.0278 33.6058 29.4605 33.8827 31.3573 32.8347L30.2163 36.5427H36.0079Z" fill="#38AF41"/>
<path d="M36.0082 36.9802H30.2168C30.0779 36.9802 29.9473 36.9143 29.8648 36.8026C29.7823 36.691 29.7578 36.5468 29.7985 36.4141L30.6597 33.6154C28.7424 34.2497 26.5717 33.7685 25.1096 32.3064C22.9934 30.1902 22.9934 26.7468 25.1096 24.6307L32.803 16.9372C32.9737 16.7664 33.2508 16.7664 33.4217 16.9372L41.1151 24.6307C43.2313 26.7468 43.2313 30.1902 41.1151 32.3064C39.6532 33.7683 37.4823 34.2495 35.565 33.6154L36.426 36.4143C36.4669 36.5471 36.4422 36.6912 36.3597 36.8028C36.2777 36.9141 36.1471 36.9802 36.0082 36.9802ZM30.8091 36.1052H35.4158L34.4491 32.9633C34.3966 32.7929 34.4531 32.6076 34.5913 32.4952C34.7298 32.3827 34.9225 32.3652 35.0789 32.4518C36.8438 33.427 39.0718 33.1127 40.4967 31.6875C41.3566 30.8276 41.8302 29.6844 41.8302 28.4684C41.8302 27.2522 41.3566 26.109 40.4967 25.2491L33.1126 17.8652L25.7284 25.2491C23.9533 27.0242 23.9533 29.9124 25.7284 31.6875C27.1536 33.1125 29.3813 33.4268 31.1462 32.4518C31.3024 32.3654 31.4953 32.3827 31.6338 32.4952C31.7723 32.6076 31.8285 32.7929 31.776 32.9635L30.8091 36.1052Z" fill="#434343"/>
<path d="M49.9148 55.5625H16.3093C14.9918 55.5625 13.9199 54.4906 13.9199 53.1731V2.82691C13.9199 1.50938 14.9918 0.4375 16.3093 0.4375H49.9148C51.2323 0.4375 52.3042 1.50938 52.3042 2.82691V53.1731C52.304 54.4906 51.2323 55.5625 49.9148 55.5625ZM16.3093 1.3125C15.4744 1.3125 14.7949 1.99194 14.7949 2.82691V53.1731C14.7949 54.0081 15.4741 54.6875 16.3093 54.6875H49.9148C50.7498 54.6875 51.4292 54.0083 51.4292 53.1731V2.82691C51.4292 1.99194 50.75 1.3125 49.9148 1.3125H16.3093Z" fill="#434343"/>
<path d="M16.1074 16.2566C15.8659 16.2566 15.6699 16.0606 15.6699 15.8191V13.1941C15.6699 12.9526 15.8659 12.7566 16.1074 12.7566C16.3489 12.7566 16.5449 12.9526 16.5449 13.1941V15.8191C16.5449 16.0606 16.3491 16.2566 16.1074 16.2566Z" fill="#434343"/>
<path d="M20.3571 8.04829H18.2417L17.8152 9.17989C17.7369 9.37151 17.5538 9.4846 17.3626 9.4846C17.3013 9.4846 17.2491 9.47585 17.1972 9.45857C16.9448 9.36276 16.8227 9.08429 16.9098 8.83185L18.8335 3.70457C18.912 3.51317 19.1034 3.39111 19.295 3.39986C19.4952 3.39111 19.6781 3.51295 19.7564 3.70457L21.6805 8.83185C21.7676 9.08429 21.6455 9.36298 21.3931 9.45857C21.3497 9.47585 21.2887 9.4846 21.2277 9.4846C21.0361 9.4846 20.8534 9.37151 20.7836 9.17989L20.3571 8.04829ZM20.0001 7.09082L19.295 5.2192L18.59 7.09082H20.0001Z" fill="#434343"/>
<path d="M45.867 48.252H47.9823L48.4089 47.1204C48.4872 46.9288 48.6701 46.8157 48.8615 46.8157C48.9227 46.8157 48.9748 46.8244 49.0268 46.8417C49.2793 46.9375 49.4013 47.216 49.3143 47.4684L47.3904 52.5957C47.3121 52.7873 47.1204 52.9092 46.929 52.9004C46.7289 52.9092 46.546 52.7873 46.4677 52.5957L44.5436 47.4684C44.4565 47.216 44.5786 46.9373 44.831 46.8417C44.8743 46.8244 44.9353 46.8157 44.9964 46.8157C45.188 46.8157 45.3707 46.9288 45.4404 47.1204L45.867 48.252ZM46.224 49.2095L46.929 51.0811L47.6341 49.2095H46.224Z" fill="#434343"/>
</svg>
