<svg width="63" height="63" viewBox="0 0 63 63" fill="none" xmlns="http://www.w3.org/2000/svg">
<path d="M44.4679 55.5644H18.5321C8.84067 55.5644 0.984375 47.7081 0.984375 38.017C0.984375 28.3255 8.84067 20.4692 18.5321 20.4692H44.4679C54.1593 20.4692 62.0156 28.3255 62.0156 38.017C62.0156 47.7081 54.1593 55.5644 44.4679 55.5644Z" fill="#38AF41"/>
<path d="M18.5321 55.5647H20.993C11.3016 55.5647 3.44531 47.7081 3.44531 38.017C3.44531 28.3255 11.3016 20.4692 20.993 20.4692H18.5321C8.84067 20.4692 0.984375 28.3255 0.984375 38.017C0.984375 47.7081 8.84067 55.5647 18.5321 55.5647Z" fill="#99CA6F"/>
<path d="M44.4678 20.4692H42.0068C51.6983 20.4692 59.5546 28.3255 59.5546 38.017C59.5546 47.7084 51.6983 55.5647 42.0068 55.5647H44.4678C54.1592 55.5647 62.0155 47.7084 62.0155 38.017C62.0155 28.3255 54.1592 20.4692 44.4678 20.4692Z" fill="#5D8E33"/>
<path d="M3.28125 29.341L57.0134 50.2808C58.061 49.2091 58.971 48.0037 59.7184 46.6928L5.98631 25.7529C4.93869 26.8247 4.02864 28.03 3.28125 29.341Z" fill="#F4EFED"/>
<path d="M57.6835 45.8997C57.0126 47.2313 56.1776 48.4649 55.2041 49.5756L57.0136 50.2809C57.0139 50.2806 57.0139 50.2806 57.0141 50.2804C57.255 50.0338 57.4879 49.7796 57.714 49.5192C57.7458 49.4828 57.7775 49.4466 57.8088 49.4099C58.1548 49.0049 58.4831 48.5838 58.7914 48.148C58.8015 48.1337 58.8116 48.1197 58.8217 48.1056C59.1421 47.6501 59.4416 47.1789 59.7187 46.6931L57.6835 45.8997Z" fill="#D6D1CF"/>
<path d="M0.984375 38.0172C0.984375 38.75 1.03458 39.4706 1.1217 40.1798H61.8781C61.9654 39.4706 62.0154 38.75 62.0154 38.0172C62.0154 37.2843 61.9652 36.5637 61.8781 35.8545H1.1217C1.03458 36.5635 0.984375 37.2843 0.984375 38.0172Z" fill="#F4EFED"/>
<path d="M61.9975 37.2769C61.9928 37.1736 61.9887 37.07 61.9823 36.9668C61.9764 36.8652 61.967 36.7648 61.9591 36.6637C61.9375 36.3925 61.9116 36.1222 61.8789 35.8543V35.854H59.418C59.5053 36.5632 59.5553 37.2838 59.5553 38.0167C59.5553 38.7495 59.5051 39.4701 59.418 40.1793H61.8789V40.1791C61.9119 39.9111 61.9375 39.6409 61.9591 39.3697C61.9668 39.2686 61.9761 39.1681 61.9823 39.0665C61.9887 38.9636 61.9928 38.86 61.9975 38.7564C62.0079 38.5108 62.0162 38.2647 62.0162 38.0164C62.0162 37.7686 62.0076 37.5225 61.9975 37.2769Z" fill="#D6D1CF"/>
<path d="M5.98631 50.2808L59.7184 29.341C58.971 28.03 58.061 26.8244 57.0134 25.7529L3.28125 46.6928C4.02864 48.0037 4.93869 49.2091 5.98631 50.2808Z" fill="#F4EFED"/>
<path d="M59.7184 29.341C59.4413 28.8552 59.1418 28.3839 58.8214 27.9284C58.8116 27.9141 58.8013 27.9001 58.7914 27.8861C58.4828 27.45 58.1545 27.0289 57.8083 26.6236C57.7773 26.5872 57.7458 26.5513 57.7145 26.5153C57.4881 26.2547 57.255 26 57.0136 25.7532L55.2041 26.4585C56.1776 27.5691 57.0126 28.8028 57.6835 30.1344L59.7184 29.341Z" fill="#D6D1CF"/>
<path d="M5.31645 45.8997C5.9873 47.2313 6.82229 48.4649 7.79584 49.5756L5.98631 50.2809C5.98607 50.2806 5.98607 50.2806 5.98582 50.2804C5.74489 50.0338 5.51209 49.7796 5.28593 49.5192C5.25418 49.4828 5.22244 49.4466 5.19118 49.4099C4.84518 49.0049 4.51689 48.5838 4.20853 48.148C4.19844 48.1337 4.18835 48.1197 4.17826 48.1056C3.85785 47.6501 3.55835 47.1789 3.28125 46.6931L5.31645 45.8997Z" fill="white"/>
<path d="M1.00308 37.2769C1.00775 37.1736 1.01194 37.07 1.01834 36.9668C1.02424 36.8652 1.03359 36.7648 1.04147 36.6637C1.06312 36.3925 1.08896 36.1222 1.1217 35.8543V35.854H3.58263C3.49552 36.5632 3.44531 37.2838 3.44531 38.0167C3.44531 38.7495 3.49552 39.4701 3.58263 40.1793H1.1217V40.1791C1.08872 39.9111 1.06312 39.6409 1.04147 39.3697C1.03384 39.2686 1.02449 39.1681 1.01834 39.0665C1.01194 38.9636 1.00775 38.86 1.00308 38.7564C0.992988 38.5111 0.984375 38.265 0.984375 38.0169C0.984375 37.7686 0.992988 37.5225 1.00308 37.2769Z" fill="white"/>
<path d="M3.28125 29.341C3.55835 28.8552 3.85785 28.3839 4.17826 27.9284C4.18835 27.9141 4.19844 27.9001 4.20829 27.8861C4.51689 27.45 4.84518 27.0289 5.19143 26.6236C5.22244 26.5872 5.25394 26.5513 5.28519 26.5153C5.5116 26.2547 5.74465 26 5.98607 25.7532L7.79559 26.4585C6.82205 27.5691 5.98705 28.8028 5.3162 30.1344L3.28125 29.341Z" fill="white"/>
<path d="M44.4679 56.0569H18.5321C8.58473 56.0569 0.492188 47.9641 0.492188 38.0167C0.492188 28.0696 8.58473 19.9768 18.5321 19.9768H44.4682C54.4153 19.9768 62.5081 28.0694 62.5081 38.0167C62.5078 47.9641 54.4153 56.0569 44.4679 56.0569ZM18.5321 20.9614C9.12762 20.9614 1.47656 28.6125 1.47656 38.0167C1.47656 47.4212 9.12762 55.0722 18.5321 55.0722H44.4682C53.8726 55.0722 61.5237 47.4212 61.5237 38.0167C61.5237 28.6122 53.8726 20.9612 44.4682 20.9612H18.5321V20.9614Z" fill="#434343"/>
<path d="M29.3369 24.1492H33.6623V55.5648H29.3369V24.1492Z" fill="#F4EFED"/>
<path d="M33.6623 56.0569H29.3369C29.0652 56.0569 28.8447 55.8364 28.8447 55.5648V24.1489C28.8447 23.8772 29.0652 23.6567 29.3369 23.6567H33.6623C33.9339 23.6567 34.1544 23.8772 34.1544 24.1489V55.5645C34.1544 55.8364 33.9342 56.0569 33.6623 56.0569ZM29.8291 55.0726H33.1701V24.6411H29.8291V55.0726Z" fill="#434343"/>
<path d="M5.98648 50.7731C5.85629 50.7731 5.72882 50.7215 5.63432 50.625C4.5552 49.5213 3.61979 48.2805 2.8537 46.9368C2.78283 46.8125 2.76954 46.6634 2.81728 46.5285C2.86502 46.3937 2.96912 46.2864 3.1025 46.2344L56.8346 25.2948C57.0182 25.2227 57.2271 25.2682 57.3652 25.4092C58.4443 26.5127 59.3797 27.7538 60.1458 29.0974C60.2167 29.2217 60.23 29.3709 60.1822 29.5057C60.1345 29.6406 60.0304 29.7479 59.897 29.7998L6.1649 50.7397C6.10682 50.7621 6.04628 50.7731 5.98648 50.7731ZM4.00001 46.941C4.60934 47.9313 5.31809 48.8576 6.11371 49.7031L58.9993 29.0933C58.3899 28.1027 57.6812 27.1767 56.8856 26.3313L4.00001 46.941Z" fill="#434343"/>
<path d="M61.8781 40.672H1.12194C0.873387 40.672 0.663715 40.4867 0.633445 40.2399C0.538453 39.4676 0.492188 38.7407 0.492188 38.0169C0.492188 37.2934 0.538453 36.5662 0.633445 35.7942C0.663715 35.5476 0.873387 35.3621 1.12194 35.3621H61.8783C62.1269 35.3621 62.3365 35.5474 62.3668 35.7942C62.4618 36.5664 62.5081 37.2934 62.5081 38.0169C62.5081 38.7407 62.4618 39.4676 62.3668 40.2396C62.3363 40.4865 62.1269 40.672 61.8781 40.672ZM1.5622 39.6877H61.438C61.4954 39.1143 61.5237 38.5642 61.5237 38.0172C61.5237 37.4701 61.4956 36.9201 61.438 36.3467H1.5622C1.50462 36.9198 1.47656 37.4699 1.47656 38.0169C1.47656 38.5642 1.50462 39.114 1.5622 39.6877Z" fill="#434343"/>
<path d="M57.013 50.7732C56.953 50.7732 56.8924 50.7623 56.8346 50.7394L3.1025 29.7996C2.96912 29.7477 2.86502 29.6404 2.81728 29.5055C2.76954 29.3706 2.78283 29.2217 2.8537 29.0972C3.61979 27.7536 4.55544 26.5125 5.63432 25.409C5.77238 25.268 5.98106 25.223 6.1649 25.2946L59.897 46.2342C60.0304 46.2861 60.1345 46.3934 60.1822 46.5283C60.23 46.6632 60.2167 46.812 60.1458 46.9366C59.3797 48.2802 58.4443 49.521 57.3652 50.6248C57.2707 50.7215 57.1432 50.7732 57.013 50.7732ZM4.00001 29.093L56.8856 49.7029C57.6812 48.8573 58.3899 47.9313 58.9993 46.9407L6.11371 26.3309C5.31809 27.1765 4.60934 28.1025 4.00001 29.093Z" fill="#434343"/>
<path d="M44.2097 51.8847H18.7907C11.1318 51.8847 4.92285 45.6757 4.92285 38.0168C4.92285 30.3579 11.1318 24.1489 18.7907 24.1489H44.2095C51.8684 24.1489 58.0774 30.3579 58.0774 38.0168C58.0774 45.676 51.8687 51.8847 44.2097 51.8847Z" fill="#FFCF24"/>
<path d="M33.9261 31.12H29.0753C25.2255 31.12 22.1045 27.9991 22.1045 24.1492H40.897C40.897 27.9991 37.776 31.12 33.9261 31.12Z" fill="#F4EFED"/>
<path d="M44.2097 52.3769H18.7907C10.8727 52.3769 4.43066 45.9349 4.43066 38.0168C4.43066 30.0987 10.8727 23.6567 18.7907 23.6567H44.2095C52.1276 23.6567 58.5696 30.0987 58.5696 38.0168C58.5698 45.9351 52.1278 52.3769 44.2097 52.3769ZM18.7907 24.6411C11.4153 24.6411 5.41504 30.6414 5.41504 38.0168C5.41504 45.3922 11.4153 51.3925 18.7907 51.3925H44.2095C51.5849 51.3925 57.5852 45.3922 57.5852 38.0168C57.5852 30.6414 51.5849 24.6411 44.2095 24.6411H18.7907Z" fill="#434343"/>
<path d="M9.67532 31.0153C9.58919 31.0153 9.50182 30.9926 9.42234 30.9449C9.18929 30.8049 9.11398 30.5027 9.25401 30.2694C9.82298 29.3227 10.6255 28.5782 11.5144 28.1729C11.761 28.0602 12.0536 28.169 12.1663 28.4165C12.279 28.6639 12.17 28.9557 11.9226 29.0684C11.2235 29.3871 10.5586 30.0095 10.0979 30.7761C10.0053 30.9301 9.84242 31.0153 9.67532 31.0153Z" fill="#434343"/>
<path d="M33.9251 31.6122H29.0744C24.9592 31.6122 21.6113 28.2644 21.6113 24.1492C21.6113 23.8775 21.8318 23.657 22.1035 23.657H40.896C41.0264 23.657 41.1517 23.7089 41.2439 23.8012C41.3362 23.8935 41.3882 24.0187 41.3882 24.1492C41.3884 28.2641 38.0403 31.6122 33.9251 31.6122ZM22.6144 24.6411C22.8667 27.9845 25.6677 30.6276 29.0744 30.6276H33.9251C37.332 30.6276 40.1331 27.9845 40.3853 24.6411H22.6144Z" fill="#434343"/>
<path d="M18.9211 36.907C18.6765 36.8688 18.439 36.8765 18.2151 36.9222C18.5677 36.5182 18.7585 35.9691 18.679 35.3748C18.5626 34.5029 17.844 33.801 16.9699 33.7041C15.793 33.5734 14.7968 34.4913 14.7968 35.6416C14.7968 36.1323 14.9794 36.5794 15.2787 36.9222C15.055 36.8765 14.8173 36.8688 14.5727 36.907C13.719 37.0399 13.0407 37.7553 12.9475 38.6141C12.8197 39.789 13.7367 40.7825 14.8854 40.7825C15.2206 40.7825 15.5359 40.6973 15.8112 40.5479C15.9062 40.4965 16.0153 40.5908 15.9835 40.6939L15.4763 42.3422H16.6622H16.8316H18.0175L17.5103 40.6939C17.4785 40.5905 17.5875 40.4963 17.6825 40.5479C17.9579 40.6973 18.2729 40.7825 18.6081 40.7825C19.7571 40.7825 20.6738 39.789 20.5461 38.6141C20.4533 37.7553 19.7748 37.0399 18.9211 36.907Z" fill="#FF2F04"/>
<path d="M27.1065 35.1782L26.8061 34.8777C25.8854 33.9571 24.3926 33.9571 23.4717 34.8777C22.5511 35.7984 22.5511 37.2912 23.4717 38.2121L27.1065 41.8469L30.7413 38.2121C31.662 37.2914 31.662 35.7986 30.7413 34.8777C29.8207 33.9571 28.3279 33.9571 27.407 34.8777L27.1065 35.1782Z" fill="#FF2F04"/>
<path d="M36.6438 42.3423L33.6543 38.017L36.6438 33.6917L39.6334 38.017L36.6438 42.3423Z" fill="#FF2F04"/>
<path d="M47.2578 42.3423L46.7465 40.68C47.5967 41.1498 48.6874 41.0257 49.4087 40.3044C50.2823 39.4308 50.2823 38.0143 49.4087 37.1407L45.9597 33.6917L42.5107 37.1407C41.6371 38.0143 41.6371 39.4308 42.5107 40.3044C43.232 41.0257 44.3227 41.1498 45.1729 40.68L44.6613 42.3423H47.2578Z" fill="#FF2F04"/>
<path d="M18.0183 42.8346H15.4771C15.3208 42.8346 15.1739 42.7606 15.0811 42.6348C14.9883 42.5093 14.9608 42.3471 15.0066 42.1977L15.3016 41.2392C14.4848 41.3805 13.6242 41.0829 13.0681 40.4633C12.6057 39.9477 12.3834 39.2545 12.4587 38.5612C12.5732 37.5072 13.4006 36.6208 14.4371 36.431C14.3505 36.1788 14.3054 35.9123 14.3054 35.6418C14.3054 34.9481 14.6022 34.2846 15.1193 33.8217C15.6361 33.359 16.331 33.1378 17.0248 33.2151C18.1204 33.3366 19.0216 34.2174 19.1673 35.3098C19.2182 35.6918 19.1786 36.0752 19.0568 36.431C20.0938 36.6208 20.9217 37.5072 21.0361 38.5615C21.1114 39.2547 20.8894 39.948 20.427 40.4635C19.8711 41.0832 19.0105 41.381 18.1935 41.2395L18.4885 42.198C18.5346 42.3474 18.5067 42.5095 18.414 42.6351C18.3214 42.7603 18.1745 42.8346 18.0183 42.8346ZM16.1435 41.8503H17.3521L17.0408 40.8391C16.9667 40.5989 17.045 40.3405 17.2399 40.1808C17.4333 40.0225 17.6996 39.9969 17.9181 40.1155C18.1322 40.2317 18.3645 40.2905 18.6091 40.2905C19.0226 40.2905 19.4183 40.1138 19.6946 39.8057C19.9747 39.4937 20.1036 39.0893 20.0579 38.6675C19.9885 38.0277 19.4788 37.4919 18.8461 37.3933C18.6665 37.3652 18.4876 37.3689 18.3148 37.4043C18.1086 37.4467 17.8972 37.3524 17.7909 37.1698C17.6845 36.9872 17.7065 36.7574 17.8452 36.5984C18.1258 36.277 18.2491 35.8655 18.192 35.4398C18.1051 34.7898 17.5689 34.2657 16.9165 34.1933C16.4954 34.1468 16.0891 34.2748 15.7761 34.5551C15.4672 34.8314 15.2901 35.2276 15.2901 35.6416C15.2901 35.9925 15.418 36.3323 15.6503 36.5984C15.7891 36.7574 15.8113 36.9875 15.705 37.1698C15.5987 37.3522 15.3868 37.4459 15.181 37.4043C15.008 37.3689 14.8294 37.365 14.6495 37.3933C14.017 37.4919 13.5074 38.0277 13.4377 38.6675C13.3919 39.0893 13.5209 39.4937 13.8009 39.8057C14.0776 40.1138 14.473 40.2905 14.8865 40.2905C15.1311 40.2905 15.3634 40.2317 15.5777 40.1155C15.7963 39.9972 16.0623 40.0228 16.2555 40.1805C16.4504 40.34 16.5286 40.5984 16.4551 40.8386L16.1435 41.8503Z" fill="#434343"/>
<path d="M27.1062 42.339C26.9802 42.339 26.8542 42.291 26.7582 42.1948L23.1234 38.5599C22.0123 37.4488 22.0123 35.641 23.1232 34.5297C24.219 33.4341 25.9914 33.4188 27.1062 34.4834C28.2207 33.4188 29.9936 33.4343 31.089 34.5297C31.6274 35.0681 31.9237 35.7835 31.9237 36.5447C31.9237 37.3058 31.6272 38.0217 31.089 38.5599L27.4542 42.1948C27.3582 42.291 27.2322 42.339 27.1062 42.339ZM25.1387 34.6803C24.661 34.6803 24.1831 34.8621 23.8194 35.2256C23.0922 35.9531 23.0922 37.1365 23.8194 37.864L27.1062 41.1506L30.393 37.864C30.7454 37.5116 30.9393 37.0433 30.9393 36.5449C30.9393 36.0468 30.7452 35.5783 30.393 35.2259C29.6656 34.4984 28.4823 34.4987 27.7549 35.2259L27.4542 35.5266C27.3619 35.6189 27.2366 35.6708 27.1062 35.6708C26.9755 35.6708 26.8502 35.6189 26.758 35.5266L26.4575 35.2259C26.094 34.8621 25.6163 34.6803 25.1387 34.6803Z" fill="#434343"/>
<path d="M36.6438 42.8345C36.4821 42.8345 36.3307 42.755 36.239 42.6222L33.2494 38.2968C33.133 38.1282 33.133 37.9055 33.2494 37.7369L36.239 33.4116C36.331 33.2787 36.4823 33.1992 36.6438 33.1992C36.8055 33.1992 36.9568 33.2787 37.0488 33.4116L40.0384 37.7369C40.1548 37.9055 40.1548 38.1282 40.0384 38.2968L37.0488 42.6222C36.9568 42.755 36.8055 42.8345 36.6438 42.8345ZM34.2525 38.0168L36.6438 41.4766L39.0351 38.0168L36.6438 34.5569L34.2525 38.0168Z" fill="#434343"/>
<path d="M47.2585 42.8347H44.6622C44.5059 42.8347 44.359 42.7606 44.2662 42.6349C44.1734 42.5094 44.1459 42.3472 44.1917 42.1978L44.4284 41.4288C43.6114 41.5275 42.7673 41.2568 42.1633 40.6528C41.0992 39.5887 41.0992 37.8572 42.1631 36.7931L45.6124 33.3441C45.8043 33.1519 46.1164 33.1519 46.3083 33.3441L49.7573 36.7931C50.8214 37.8572 50.8214 39.5887 49.7573 40.6528C49.1532 41.2568 48.3083 41.5275 47.492 41.4288L47.7288 42.1981C47.7745 42.3474 47.747 42.5096 47.6542 42.6351C47.5614 42.7604 47.4147 42.8347 47.2585 42.8347ZM45.3284 41.8503H46.5918L46.2763 40.8249C46.2173 40.6332 46.2807 40.4247 46.4363 40.2982C46.5918 40.1715 46.8089 40.152 46.9848 40.2495C47.6611 40.6228 48.515 40.5027 49.0611 39.9566C49.7413 39.2762 49.7413 38.1693 49.0611 37.4888L45.9601 34.3878L42.8591 37.4888C42.1789 38.1693 42.1789 39.2762 42.8591 39.9566C43.4051 40.5025 44.2588 40.6228 44.9353 40.2495C45.1111 40.1523 45.3279 40.1717 45.4839 40.2982C45.6397 40.4247 45.7029 40.6332 45.6439 40.8251L45.3284 41.8503Z" fill="#434343"/>
<path d="M35.1294 15.8115H34.2922H32.7879C32.7893 15.7874 32.7915 15.7635 32.7915 15.7392V13.3831H30.2088V15.7392C30.2088 15.7635 30.211 15.7874 30.2125 15.8115H28.7081H27.8709C26.9665 15.8115 26.2334 16.5446 26.2334 17.449V20.4691H36.7665V17.449C36.767 16.5446 36.0338 15.8115 35.1294 15.8115Z" fill="#F4EFED"/>
<path d="M35.1294 15.8115H34.2922H33.8066C34.711 15.8115 35.4441 16.5446 35.4441 17.449V20.4691H36.7669V17.449C36.7669 16.5446 36.0338 15.8115 35.1294 15.8115Z" fill="#D6D1CF"/>
<path d="M27.8709 15.8115H28.7081H29.1937C28.2893 15.8115 27.5562 16.5446 27.5562 17.449V20.4691H26.2334V17.449C26.2334 16.5446 26.9665 15.8115 27.8709 15.8115Z" fill="#D6D1CF"/>
<path d="M32.7893 15.8061L32.7917 13.3833H30.209L30.2114 15.8061C30.2122 16.5176 30.789 17.0937 31.5005 17.0937C32.2117 17.0937 32.7885 16.5173 32.7893 15.8061Z" fill="#E18152"/>
<path d="M36.7667 20.9615H26.2334C25.9617 20.9615 25.7412 20.741 25.7412 20.4693V17.449C25.7412 16.2749 26.6965 15.3193 27.8709 15.3193H29.7164V13.3831C29.7164 13.1114 29.9369 12.8909 30.2086 12.8909H32.7913C33.063 12.8909 33.2835 13.1114 33.2835 13.3831V15.3193H35.129C36.3033 15.3193 37.2586 16.2747 37.2586 17.449V20.4693C37.2589 20.741 37.0384 20.9615 36.7667 20.9615ZM26.7256 19.9771H36.2745V17.449C36.2745 16.8175 35.7607 16.3037 35.1292 16.3037H32.7879C32.6528 16.3037 32.5233 16.2481 32.4305 16.1499C32.3375 16.0517 32.289 15.9195 32.2964 15.7847C32.2964 15.7827 32.2979 15.7591 32.2981 15.7574L32.2991 13.8755H30.701V15.7394C30.701 15.7416 30.7039 15.7825 30.7039 15.7849C30.7113 15.92 30.6628 16.0522 30.5698 16.1501C30.477 16.2483 30.3476 16.3039 30.2125 16.3039H27.8712C27.2397 16.3039 26.7258 16.8178 26.7258 17.4493V19.9771H26.7256Z" fill="#434343"/>
<path d="M31.5005 17.5858C30.5196 17.5858 29.7205 16.7878 29.7193 15.8066L29.7168 13.3835C29.7168 13.2529 29.7685 13.1276 29.8608 13.0351C29.953 12.9428 30.0783 12.8909 30.209 12.8909H32.7917C32.9224 12.8909 33.0477 12.9428 33.14 13.0351C33.2323 13.1274 33.2842 13.2529 33.2839 13.3835L33.2815 15.8063C33.2807 16.7875 32.4817 17.5858 31.5005 17.5858ZM30.7017 13.8752L30.7036 15.8054C30.7041 16.2441 31.0617 16.6012 31.5005 16.6012C31.9395 16.6012 32.2968 16.2441 32.2971 15.8054L32.2991 13.8752H30.7017Z" fill="#434343"/>
<path d="M31.4999 15.0497C29.9579 15.0497 28.708 13.7835 28.708 12.2216V10.2637C28.708 8.7017 29.9579 7.43555 31.4999 7.43555C33.042 7.43555 34.2919 8.7017 34.2919 10.2637V12.2216C34.2919 13.7835 33.042 15.0497 31.4999 15.0497Z" fill="#FF9F70"/>
<path d="M31.4999 15.5416C29.6892 15.5416 28.2158 14.052 28.2158 12.2211V10.2632C28.2158 8.43248 29.6892 6.94287 31.4999 6.94287C33.3107 6.94287 34.7841 8.43248 34.7841 10.2632V12.2211C34.7841 14.0523 33.3107 15.5416 31.4999 15.5416ZM31.4999 7.92725C30.2318 7.92725 29.2002 8.97511 29.2002 10.2632V12.2211C29.2002 13.5091 30.2318 14.5573 31.4999 14.5573C32.7681 14.5573 33.7997 13.5094 33.7997 12.2211V10.2632C33.7997 8.97536 32.7681 7.92725 31.4999 7.92725Z" fill="#434343"/>
<path d="M28.6055 20.9615C28.3338 20.9615 28.1133 20.741 28.1133 20.4693V16.0579C28.1133 15.7862 28.3338 15.5657 28.6055 15.5657C28.8772 15.5657 29.0977 15.7862 29.0977 16.0579V20.4693C29.0977 20.741 28.8772 20.9615 28.6055 20.9615Z" fill="#434343"/>
<path d="M34.3945 20.9615C34.1228 20.9615 33.9023 20.741 33.9023 20.4693V16.0579C33.9023 15.7862 34.1228 15.5657 34.3945 15.5657C34.6665 15.5657 34.8867 15.7862 34.8867 16.0579V20.4693C34.8867 20.741 34.6665 20.9615 34.3945 20.9615Z" fill="#434343"/>
</svg>
