<svg width="56" height="56" viewBox="0 0 56 56" fill="none" xmlns="http://www.w3.org/2000/svg">
<path d="M13.7718 40.9089C13.5588 43.4386 10.9229 43.8378 10.9229 43.8378C13.1863 43.9443 13.7502 46.9132 13.7502 46.9132C13.7985 44.7963 16.6642 43.8065 16.6642 43.8065C14.5173 43.6781 13.7718 40.9089 13.7718 40.9089Z" fill="#D7E057"/>
<path d="M16.6846 43.4793C14.8021 43.3664 14.0962 40.8488 14.0894 40.8232C14.0476 40.6696 13.9006 40.5694 13.7431 40.5821C13.5845 40.5966 13.4592 40.7226 13.4458 40.8812C13.2577 43.1159 10.9711 43.4983 10.8746 43.5132C10.7077 43.5385 10.5874 43.6862 10.5962 43.8546C10.6049 44.0233 10.7399 44.1576 10.9083 44.1655C12.8832 44.2587 13.4237 46.9477 13.429 46.9751C13.4589 47.1306 13.595 47.2413 13.751 47.2413C13.7602 47.2413 13.7693 47.2409 13.7785 47.2402C13.9457 47.2262 14.0754 47.0886 14.0793 46.9208C14.122 45.0595 16.7463 44.1259 16.7728 44.1167C16.9204 44.0655 17.0117 43.9168 16.9902 43.7619C16.9683 43.607 16.8406 43.4887 16.6846 43.4793ZM13.7168 45.7422C13.4202 45.0573 12.9055 44.2311 12.0572 43.8004C12.6983 43.493 13.4592 42.9444 13.8514 41.9907C14.1907 42.6624 14.7701 43.4959 15.6744 43.8988C15.0167 44.2576 14.16 44.8626 13.7168 45.7422Z" fill="#3A312A"/>
<path d="M9.02587 44.6233C8.87515 46.4124 7.01074 46.6949 7.01074 46.6949C8.61155 46.7701 9.01055 48.8701 9.01055 48.8701C9.04468 47.373 11.0716 46.6728 11.0716 46.6728C9.55327 46.5822 9.02587 44.6233 9.02587 44.6233Z" fill="#D7E057"/>
<path d="M11.0913 46.3454C9.82976 46.2697 9.3472 44.5545 9.34261 44.5372C9.30104 44.3836 9.15558 44.2811 8.99654 44.2961C8.83773 44.3104 8.71239 44.4368 8.69904 44.5954C8.57239 46.0984 7.02648 46.3598 6.96173 46.3701C6.79483 46.3955 6.67451 46.5432 6.68304 46.7116C6.69179 46.8802 6.82676 47.0146 6.9952 47.0224C8.31558 47.0846 8.68482 48.9135 8.68832 48.9315C8.71786 49.0874 8.85436 49.1983 9.01032 49.1983C9.01951 49.1983 9.02848 49.1979 9.03767 49.1972C9.20501 49.1835 9.33473 49.0457 9.33867 48.8777C9.36711 47.6288 11.1611 46.9892 11.1788 46.9831C11.3267 46.9321 11.4181 46.7833 11.3967 46.6282C11.3752 46.4732 11.2475 46.3548 11.0913 46.3454ZM8.99458 47.8316C8.79245 47.419 8.4827 46.9682 8.02179 46.6768C8.42779 46.4491 8.83051 46.1015 9.08733 45.6014C9.31854 46.0112 9.66789 46.4664 10.1682 46.7442C9.76348 46.9846 9.29558 47.3436 8.99458 47.8316Z" fill="#3A312A"/>
<path d="M9.02587 38.792C8.87515 40.5811 7.01074 40.8638 7.01074 40.8638C8.61155 40.939 9.01055 43.039 9.01055 43.039C9.04468 41.5417 11.0716 40.8417 11.0716 40.8417C9.55327 40.7507 9.02587 38.792 9.02587 38.792Z" fill="#D7E057"/>
<path d="M11.0903 40.514C9.82901 40.4386 9.34644 38.7233 9.34163 38.7061C9.30007 38.5525 9.15547 38.449 8.99557 38.465C8.83676 38.4792 8.71141 38.6057 8.69807 38.7643C8.57141 40.2673 7.0255 40.5287 6.96075 40.539C6.79385 40.5643 6.67354 40.712 6.68207 40.8804C6.69082 41.0491 6.82579 41.1834 6.99422 41.1913C8.3146 41.2534 8.68385 43.0824 8.68735 43.1003C8.71688 43.2563 8.85338 43.3672 9.00957 43.3672C9.01854 43.3672 9.02772 43.3668 9.03669 43.3661C9.20404 43.3523 9.33376 43.2145 9.33769 43.0465C9.36613 41.7977 11.1601 41.1578 11.1778 41.1517C11.3259 41.1005 11.4171 40.952 11.3957 40.7969C11.3745 40.6418 11.2467 40.5232 11.0903 40.514ZM8.99382 42.0004C8.79169 41.5879 8.48194 41.137 8.02104 40.8457C8.42704 40.6179 8.82976 40.2703 9.08657 39.7701C9.31779 40.18 9.66713 40.6352 10.1674 40.9128C9.76272 41.1534 9.29482 41.5122 8.99382 42.0004Z" fill="#3A312A"/>
<path d="M34.2674 9.54987L13.7967 3.70378C11.9726 3.18271 10.0714 4.23928 9.55036 6.06343L8.01583 11.4368L7.15439 14.4534L3.70426 26.5338C3.1832 28.358 4.23976 30.2592 6.06392 30.7802L26.5343 36.6263C28.3585 37.1472 30.2596 36.0908 30.7807 34.2667L36.6268 13.7962C37.1481 11.9721 36.0915 10.0709 34.2674 9.54987Z" fill="#38AF41"/>
<path d="M36.6128 11.025C36.1245 10.1463 35.3233 9.51035 34.3566 9.23429L13.8862 3.38841C12.92 3.11279 11.9037 3.22916 11.0247 3.71763C10.146 4.20566 9.5101 5.00716 9.23404 5.9736L7.69973 11.347C7.64985 11.5213 7.75092 11.7029 7.92504 11.7525C8.09917 11.8018 8.28095 11.7016 8.33082 11.5272L9.86535 6.15385C10.0933 5.35585 10.6183 4.69435 11.3437 4.29119C12.069 3.88782 12.9084 3.79179 13.7059 4.01951L34.1764 9.8656C34.9744 10.0935 35.6359 10.6185 36.039 11.3441C36.4422 12.0693 36.5386 12.9084 36.3107 13.7064L30.4646 34.1768C30.2367 34.9748 29.7117 35.6363 28.9861 36.0395C28.2607 36.4429 27.4218 36.5395 26.6238 36.3112L6.15339 30.4651C4.50598 29.9948 3.54851 28.2717 4.01904 26.6243L7.46917 14.5438C7.51904 14.3694 7.41798 14.1879 7.24385 14.1382C7.06973 14.0888 6.88795 14.189 6.83807 14.3635L3.38817 26.444C2.81854 28.4392 3.97814 30.5261 5.97335 31.0962L26.4438 36.9423C26.7868 37.04 27.1359 37.0886 27.4828 37.0886C28.1139 37.0886 28.7382 36.9283 29.3052 36.6133C30.184 36.125 30.8199 35.3237 31.0957 34.3573L36.9418 13.8869C37.2179 12.92 37.1008 11.9039 36.6128 11.025Z" fill="#3A312A"/>
<path d="M16.2912 8.71147C14.6563 8.24444 12.9524 9.19141 12.4854 10.8263C12.0184 12.4613 12.9653 14.1651 14.6003 14.6322C16.2352 15.099 17.9391 14.1522 18.4061 12.5173C18.8731 10.8823 17.9264 9.17829 16.2912 8.71147Z" fill="#FAE6CA"/>
<path d="M18.4234 10.017C17.9813 9.22139 17.2562 8.64564 16.3812 8.39604C15.5059 8.14601 14.5861 8.25189 13.7907 8.69376C12.9953 9.13585 12.4196 9.86123 12.1696 10.7362C11.9198 11.6112 12.0256 12.5313 12.4675 13.3267C12.9096 14.1223 13.635 14.698 14.5098 14.9476C14.8202 15.0362 15.1363 15.0799 15.4504 15.0799C16.0218 15.0799 16.587 14.9349 17.1002 14.6497C17.8956 14.2076 18.4713 13.4822 18.7211 12.6072C18.9714 11.7324 18.8655 10.8126 18.4234 10.017ZM18.0903 12.4272C17.8886 13.1335 17.4237 13.7193 16.7815 14.0761C16.1394 14.4329 15.397 14.5182 14.69 14.3167C13.9837 14.115 13.3981 13.6502 13.0411 13.0082C12.6843 12.3659 12.5988 11.6233 12.8004 10.9167C13.0021 10.2101 13.467 9.62454 14.1092 9.26776C14.5235 9.03742 14.9798 8.92017 15.4412 8.92017C15.6947 8.92017 15.95 8.9556 16.2007 9.02714C16.907 9.22882 17.4926 9.69367 17.8496 10.3357C18.2066 10.9779 18.2922 11.7206 18.0903 12.4272Z" fill="#3A312A"/>
<path d="M25.0524 31.7198C26.7493 31.6229 28.0464 30.1687 27.9495 28.4718C27.8525 26.7749 26.3984 25.4778 24.7014 25.5748C23.0045 25.6717 21.7075 27.1259 21.8044 28.8228C21.9013 30.5197 23.3555 31.8167 25.0524 31.7198Z" fill="#FAE6CA"/>
<path d="M27.8635 27.0038C27.4214 26.2085 26.6962 25.6327 25.8212 25.3829C24.0148 24.8675 22.1254 25.9166 21.6098 27.7231C21.094 29.5295 22.1438 31.4189 23.9502 31.9347C24.2617 32.0235 24.5752 32.0659 24.8843 32.0659C26.367 32.0659 27.7348 31.089 28.1616 29.5943C28.4114 28.7193 28.3058 27.7994 27.8635 27.0038ZM27.5305 29.414C27.1142 30.8724 25.5891 31.7201 24.1305 31.3038C22.6721 30.8873 21.8244 29.362 22.2409 27.9036C22.5857 26.6965 23.6897 25.9079 24.8867 25.9079C25.1361 25.9079 25.3896 25.9422 25.641 26.014C26.3475 26.2159 26.9331 26.6805 27.2901 27.3228C27.6467 27.965 27.7322 28.7075 27.5305 29.414Z" fill="#3A312A"/>
<path d="M31.058 17.3791C32.1241 16.0546 31.9146 14.1166 30.59 13.0505C29.2655 11.9844 27.3275 12.1939 26.2614 13.5185C25.1953 14.843 25.4048 16.781 26.7294 17.8471C28.0539 18.9132 29.9919 18.7037 31.058 17.3791Z" fill="#FAE6CA"/>
<path d="M29.5947 12.1695C28.7201 11.9194 27.7998 12.0253 27.0042 12.4674C26.2088 12.9095 25.6331 13.6347 25.3833 14.5097C24.8675 16.3161 25.9172 18.2054 27.7235 18.7213C28.035 18.8101 28.3487 18.8527 28.6577 18.8527C30.1402 18.8527 31.5078 17.8758 31.9348 16.3811C32.4509 14.5746 31.4009 12.6853 29.5947 12.1695ZM31.304 16.2008C30.8875 17.6594 29.3619 18.5071 27.9037 18.0904C26.4453 17.6739 25.5977 16.1485 26.0142 14.6901C26.2158 13.9838 26.6807 13.3982 27.3229 13.0412C27.9652 12.6844 28.7076 12.5989 29.4142 12.8006C30.8728 13.2171 31.7205 14.7424 31.304 16.2008Z" fill="#3A312A"/>
<path d="M14.5877 25.8632C15.1284 24.2513 14.26 22.5063 12.6481 21.9656C11.0362 21.4249 9.29121 22.2932 8.75051 23.9051C8.20981 25.517 9.07819 27.2621 10.6901 27.8028C12.302 28.3435 14.047 27.4751 14.5877 25.8632Z" fill="#FAE6CA"/>
<path d="M12.6076 21.6092C10.8011 21.0938 8.91177 22.143 8.39596 23.9494C7.88015 25.7558 8.93015 27.6452 10.7364 28.161C11.0479 28.2498 11.3616 28.2925 11.6706 28.2925C13.1531 28.2925 14.521 27.3155 14.9477 25.8208C15.4636 24.0144 14.4138 22.1252 12.6076 21.6092ZM14.3169 25.6406C13.9004 27.099 12.375 27.9462 10.9168 27.5301C9.45843 27.1136 8.61077 25.5883 9.02727 24.1299C9.37202 22.9228 10.4761 22.1342 11.6731 22.1342C11.9224 22.1342 12.176 22.1686 12.4273 22.2403C13.8857 22.6568 14.7334 24.1822 14.3169 25.6406Z" fill="#3A312A"/>
<path d="M52.3217 42.879L47.0573 22.2513C46.588 20.4132 44.7177 19.3032 42.8794 19.7722L30.0768 23.0397L27.1447 23.7881L22.2515 25.0369C20.4133 25.5061 19.3034 27.3764 19.7726 29.2148L25.037 49.8425C25.5062 51.6809 27.3768 52.7906 29.2149 52.3216L49.8426 47.0572C51.681 46.5877 52.7907 44.7174 52.3217 42.879Z" fill="#FF2F04"/>
<path d="M52.6399 42.798L47.3756 22.1703C47.1271 21.1964 46.514 20.3774 45.6497 19.8645C44.7852 19.3513 43.7724 19.2063 42.7987 19.4545L29.9962 22.722C29.8205 22.7666 29.7146 22.9453 29.7595 23.121C29.8043 23.2964 29.9822 23.4032 30.1585 23.3577L42.9611 20.0902C43.765 19.885 44.6008 20.0053 45.3148 20.4288C46.0286 20.8526 46.5345 21.5285 46.74 22.3326L52.0042 42.9603C52.2094 43.7644 52.0893 44.6003 51.6656 45.3141C51.2423 46.0278 50.5661 46.5338 49.762 46.7392L29.1343 52.0034C27.4757 52.4272 25.7791 51.4213 25.3556 49.7612L20.0912 29.1336C19.886 28.3294 20.0061 27.4936 20.4296 26.7798C20.8531 26.0658 21.529 25.5598 22.3334 25.3547L27.2266 24.1058C27.4022 24.0612 27.5081 23.8825 27.4635 23.7068C27.4186 23.5314 27.2404 23.4244 27.0643 23.4701L22.1713 24.719C21.1972 24.9675 20.3784 25.5804 19.8654 26.4449C19.3525 27.3094 19.2068 28.3218 19.4553 29.2959L24.7197 49.9236C25.1535 51.6232 26.6878 52.7564 28.3667 52.7564C28.6738 52.7564 28.9858 52.7185 29.2968 52.6391L49.9245 47.3749C50.8984 47.1264 51.7172 46.5135 52.2301 45.649C52.7427 44.7845 52.8884 43.7723 52.6399 42.798Z" fill="#3A312A"/>
<path d="M30.6738 30.3272C30.2534 28.6796 28.5769 27.6849 26.9295 28.1054C25.2821 28.5258 24.2872 30.2023 24.7077 31.8497C25.1281 33.4974 26.8046 34.492 28.452 34.0716C30.0996 33.6511 31.0943 31.9749 30.6738 30.3272Z" fill="#FAE6CA"/>
<path d="M30.9914 30.2461C30.527 28.4261 28.6685 27.3234 26.8479 27.7878C25.9661 28.0127 25.225 28.5676 24.7606 29.3503C24.2962 30.133 24.1645 31.0496 24.3894 31.9314C24.782 33.4701 26.1711 34.4962 27.6909 34.4962C27.969 34.4962 28.2516 34.4619 28.5329 34.3901C30.3529 33.9251 31.4558 32.0661 30.9914 30.2461ZM28.3704 33.754C26.901 34.1281 25.4002 33.2388 25.0253 31.7688C24.8435 31.057 24.95 30.317 25.3249 29.6852C25.6999 29.0535 26.2984 28.6053 27.0104 28.4235C27.2377 28.3655 27.4656 28.3377 27.6903 28.3377C28.9173 28.3377 30.0388 29.1661 30.3558 30.4084C30.7305 31.878 29.8399 33.3786 28.3704 33.754Z" fill="#3A312A"/>
<path d="M38.7746 37.4724C39.5737 35.971 39.0044 34.106 37.5031 33.3069C36.0017 32.5077 34.1368 33.077 33.3376 34.5784C32.5385 36.0798 33.1077 37.9447 34.6091 38.7439C36.1105 39.543 37.9754 38.9737 38.7746 37.4724Z" fill="#FAE6CA"/>
<path d="M39.3477 35.2046C38.8831 33.3846 37.0238 32.2819 35.2042 32.7463C33.3842 33.2107 32.2813 35.0694 32.7459 36.8896C33.1385 38.4283 34.5272 39.4545 36.0473 39.4545C36.3253 39.4545 36.6079 39.4201 36.8894 39.3484C38.7092 38.8835 39.8122 37.0246 39.3477 35.2046ZM36.7269 38.7125C35.2576 39.0872 33.7567 38.1971 33.3816 36.7273C33.0066 35.2578 33.8972 33.7571 35.3665 33.382C35.5938 33.324 35.8217 33.2962 36.0462 33.2962C37.2731 33.2962 38.3947 34.1246 38.7121 35.3669C39.087 36.8365 38.1962 38.3371 36.7269 38.7125Z" fill="#3A312A"/>
<path d="M47.3868 40.2442C46.9663 38.5968 45.2898 37.6019 43.6424 38.0224C41.9948 38.4428 41.0001 40.1193 41.4206 41.7667C41.841 43.4141 43.5175 44.409 45.1649 43.9885C46.8125 43.5681 47.8074 41.8916 47.3868 40.2442Z" fill="#FAE6CA"/>
<path d="M47.7044 40.1629C47.4795 39.2813 46.9245 38.5397 46.1418 38.0755C45.3594 37.6111 44.4428 37.4792 43.5608 37.7045C42.6792 37.9294 41.9377 38.4844 41.4735 39.2671C41.0091 40.0498 40.8772 40.9665 41.1025 41.8481C41.3274 42.7297 41.8823 43.4712 42.665 43.9354C43.1983 44.2517 43.7933 44.414 44.3975 44.4138C44.6801 44.4138 44.965 44.3784 45.246 44.3066C46.1276 44.0818 46.8692 43.5268 47.3334 42.7441C47.7978 41.9612 47.9295 41.0446 47.7044 40.1629ZM46.769 42.409C46.394 43.0407 45.7958 43.4887 45.0837 43.6705C44.3724 43.8519 43.6319 43.746 43.0001 43.3708C42.3682 42.9959 41.9202 42.3976 41.7384 41.6856C41.5566 40.9738 41.6631 40.2337 42.0381 39.602C42.413 38.97 43.0113 38.522 43.7233 38.3402C43.9502 38.2823 44.1801 38.2536 44.4085 38.2536C44.896 38.2536 45.3766 38.3844 45.8069 38.6399C46.4389 39.0149 46.8869 39.6131 47.0687 40.3252C47.2502 41.0372 47.1439 41.777 46.769 42.409Z" fill="#3A312A"/>
<path d="M52.0042 42.9612L46.7389 22.3331C46.5332 21.5281 46.0279 20.8521 45.3148 20.4299C44.827 20.1412 44.2845 19.9924 43.7332 19.9924C43.4751 19.9924 43.217 20.0252 42.9611 20.0909L41.9045 20.3599C41.9482 20.3818 41.992 20.4059 42.0336 20.4299C42.7467 20.8521 43.252 21.5281 43.4576 22.3331L48.7229 42.9612C48.9264 43.764 48.8061 44.5996 48.3839 45.3149C47.9595 46.0281 47.2836 46.5334 46.4807 46.739L26.9092 51.7352C27.5676 52.0874 28.3551 52.2034 29.1339 52.0043L49.762 46.739C50.5648 46.5334 51.2407 46.0281 51.6651 45.3149C52.0873 44.5996 52.2076 43.764 52.0042 42.9612Z" fill="#D32B08"/>
</svg>
