<svg width="55" height="55" viewBox="0 0 55 55" fill="none" xmlns="http://www.w3.org/2000/svg">
<path d="M27.5 54.1406C42.2132 54.1406 54.1406 42.2132 54.1406 27.5C54.1406 12.7868 42.2132 0.859375 27.5 0.859375C12.7868 0.859375 0.859375 12.7868 0.859375 27.5C0.859375 42.2132 12.7868 54.1406 27.5 54.1406Z" fill="#38AF41"/>
<path d="M48.2127 10.7471C47.0349 9.29285 45.7074 7.96512 44.2529 6.78734L30.2998 20.7404V1.00568C29.3797 0.909434 28.4457 0.859375 27.5 0.859375C26.5543 0.859375 25.6203 0.909434 24.7002 1.00568V20.7404L10.7471 6.78734C9.29285 7.96512 7.96512 9.29264 6.78734 10.7471L20.7404 24.7002H1.00568C0.909434 25.6203 0.859375 26.5543 0.859375 27.5C0.859375 28.4457 0.909434 29.3797 1.00568 30.3001H20.7404L6.78734 44.2531C7.96512 45.7074 9.29264 47.0351 10.7471 48.2129L24.7002 34.2598V53.9945C25.6203 54.0906 26.5543 54.1406 27.5 54.1406C28.4457 54.1406 29.3797 54.0906 30.2998 53.9943V34.2596L44.2529 48.2127C45.7071 47.0349 47.0349 45.7074 48.2127 44.2529L34.2596 30.2998H53.9943C54.0906 29.3797 54.1406 28.4457 54.1406 27.5C54.1406 26.5543 54.0906 25.6203 53.9943 24.6999H34.2596L48.2127 10.7471Z" fill="#FFCF24"/>
<path d="M32.7042 32.6423L50.9844 40.0856C51.8618 38.4517 52.5738 36.7158 53.0978 34.8999L34.8159 27.456L53.0062 19.7925C52.4605 17.984 51.7279 16.2566 50.8303 14.6326L32.6419 22.2952L40.0851 4.01503C38.4512 3.13761 36.7153 2.42562 34.8994 1.90161L27.4555 20.1835L19.7921 1.99335C17.9835 2.53905 16.2562 3.27167 14.6321 4.16929L22.2948 22.3577L4.01478 14.9145C3.13736 16.5484 2.42537 18.2843 1.90137 20.1002L20.1833 27.5441L1.99289 35.2076C2.53859 37.0161 3.27121 38.7434 4.16883 40.3675L22.3573 32.7048L14.914 50.9848C16.5479 51.8622 18.2838 52.5742 20.0997 53.0982L27.5436 34.8163L35.2071 53.0067C37.0156 52.461 38.743 51.7284 40.367 50.8308L32.7042 32.6423Z" fill="#FF2F04"/>
<path d="M20.1001 53.5281C20.0606 53.5281 20.0204 53.5227 19.9809 53.5111C18.1586 52.9854 16.3857 52.2627 14.711 51.3636C14.5174 51.2596 14.4336 51.0265 14.5163 50.8228L21.5684 33.5034L4.33574 40.7634C4.13336 40.8487 3.89897 40.7677 3.79283 40.5752C2.87373 38.9123 2.12973 37.148 1.58166 35.3317C1.51807 35.1214 1.62356 34.8971 1.82615 34.8116L19.0605 27.5509L1.73936 20.4983C1.5359 20.4153 1.42762 20.1923 1.48863 19.9811C2.01436 18.1588 2.73688 16.3859 3.63621 14.7112C3.7402 14.5179 3.97266 14.4336 4.17697 14.5166L21.4964 21.5686L14.2364 4.33598C14.1511 4.1336 14.2323 3.89942 14.4246 3.79307C16.0877 2.87397 17.852 2.12997 19.6681 1.5819C19.878 1.51788 20.1027 1.6238 20.1882 1.82639L27.4489 19.0607L34.5015 1.7396C34.5845 1.53614 34.8077 1.42721 35.0187 1.48887C36.8407 2.0146 38.6138 2.73712 40.2886 3.63645C40.4821 3.74044 40.5661 3.97354 40.4832 4.17721L33.4312 21.4966L50.6638 14.2366C50.8662 14.1511 51.1006 14.2325 51.2067 14.4248C52.1258 16.0879 52.8698 17.8522 53.4179 19.6683C53.4815 19.8786 53.376 20.1029 53.1734 20.1884L35.939 27.4491L53.2602 34.5018C53.4636 34.5847 53.5719 34.8077 53.5109 35.0189C52.9852 36.8412 52.2624 38.6141 51.3633 40.2888C51.2596 40.4822 51.0269 40.5664 50.8226 40.4834L33.5031 33.4314L40.7631 50.664C40.8484 50.8664 40.7672 51.1006 40.5749 51.2069C38.9118 52.126 37.1475 52.87 35.3315 53.4181C35.1211 53.4813 34.8966 53.3762 34.8113 53.1736L27.5507 35.9393L20.498 53.2604C20.4308 53.4256 20.2709 53.5281 20.1001 53.5281ZM15.4591 50.7865C16.8644 51.5146 18.3378 52.1151 19.849 52.5757L27.1459 34.6545C27.2114 34.4936 27.3676 34.3879 27.5412 34.3868H27.5438C27.7165 34.3868 27.8727 34.4904 27.9398 34.6498L35.452 52.4812C36.9578 52.0021 38.4239 51.384 39.82 50.6391L32.3084 32.8092C32.2409 32.6492 32.2766 32.4642 32.3986 32.3404C32.5207 32.2167 32.7052 32.1789 32.8663 32.2444L50.786 39.5407C51.5141 38.1352 52.1146 36.662 52.5753 35.1508L34.6541 27.8541C34.4931 27.7885 34.3874 27.6324 34.3864 27.4588C34.3853 27.285 34.4891 27.1277 34.6493 27.0602L52.4807 19.548C52.0016 18.0422 51.3835 16.5761 50.6387 15.18L32.8088 22.6916C32.6489 22.7591 32.4635 22.7234 32.34 22.6014C32.2164 22.4791 32.1784 22.2946 32.2439 22.1336L39.5405 4.21395C38.135 3.48585 36.6616 2.88536 35.1506 2.42473L27.8536 20.3457C27.7881 20.5066 27.6319 20.6123 27.4583 20.6134C27.4574 20.6134 27.4566 20.6134 27.4557 20.6134C27.283 20.6134 27.1268 20.5099 27.0598 20.3504L19.5475 2.51905C18.0417 2.99794 16.5756 3.61626 15.1796 4.36112L22.6911 22.191C22.7586 22.3511 22.7229 22.536 22.6009 22.6598C22.4787 22.7833 22.2941 22.8209 22.1332 22.7558L4.21328 15.4593C3.48518 16.8646 2.88469 18.338 2.42406 19.8492L20.3455 27.1462C20.5064 27.2117 20.6121 27.3679 20.6132 27.5415C20.6142 27.7153 20.5105 27.8728 20.3502 27.94L2.51881 35.4522C2.99791 36.9581 3.61602 38.424 4.36088 39.8202L22.1908 32.3086C22.3508 32.2414 22.536 32.2768 22.6596 32.3989C22.7831 32.5211 22.8209 32.7057 22.7556 32.8666L15.4591 50.7865Z" fill="#434343"/>
<path d="M27.5 54.5703C26.5564 54.5703 25.5995 54.5205 24.6555 54.4218C24.4365 54.3991 24.2703 54.2145 24.2703 53.9945V35.2971L11.0507 48.5164C10.8954 48.6722 10.6474 48.6851 10.4764 48.5465C9.00152 47.352 7.64779 45.9985 6.45326 44.5233C6.3149 44.3525 6.32779 44.1046 6.48334 43.9491L19.7027 30.7295H1.00568C0.785684 30.7295 0.601133 30.5634 0.578359 30.3445C0.479531 29.4005 0.429688 28.4434 0.429688 27.5C0.429688 26.5566 0.479531 25.5995 0.578145 24.6555C0.600918 24.4365 0.785469 24.2702 1.00547 24.2702H19.7029L6.48355 11.0507C6.32801 10.8951 6.3149 10.6474 6.45348 10.4764C7.64801 9.0015 9.00152 7.64799 10.4766 6.45324C10.6474 6.31488 10.8954 6.32777 11.0509 6.48332L24.2705 19.7029V1.00566C24.2705 0.785664 24.4365 0.601113 24.6557 0.57834C26.5435 0.381113 28.4567 0.381113 30.3445 0.57834C30.5635 0.601113 30.7297 0.785664 30.7297 1.00566V19.7031L43.9493 6.48354C44.1046 6.32799 44.3526 6.31488 44.5236 6.45346C45.9987 7.64799 47.3522 9.00172 48.5467 10.4766C48.6853 10.6474 48.6722 10.8954 48.5167 11.0509L35.2973 24.2705H53.9948C54.2147 24.2705 54.3993 24.4365 54.4221 24.6557C54.5207 25.5997 54.5705 26.5568 54.5705 27.5002C54.5705 28.4436 54.5207 29.4007 54.4221 30.3447C54.3991 30.5637 54.2147 30.7297 53.9948 30.7297H35.2973L48.5167 43.9493C48.6722 44.1048 48.6853 44.3525 48.5467 44.5236C47.352 45.9987 45.9985 47.3522 44.5236 48.5467C44.3526 48.6853 44.1046 48.6722 43.9493 48.5166L30.7297 35.2973V53.9947C30.7297 54.2147 30.5637 54.3993 30.3445 54.4221C29.4005 54.5205 28.4436 54.5703 27.5 54.5703ZM25.1298 53.6044C26.7077 53.7459 28.2926 53.7459 29.8702 53.6044V34.2596C29.8702 34.0858 29.9748 33.9292 30.1355 33.8626C30.296 33.796 30.481 33.8327 30.6036 33.9558L44.281 47.6332C45.4949 46.6202 46.6198 45.4953 47.633 44.2812L33.9556 30.6038C33.8327 30.4809 33.796 30.2962 33.8624 30.1357C33.929 29.975 34.0856 29.8704 34.2594 29.8704H53.6042C53.6751 29.0812 53.7109 28.2857 53.7109 27.5C53.7109 26.7143 53.6751 25.9187 53.6044 25.1296H34.2596C34.0858 25.1296 33.9292 25.025 33.8626 24.8643C33.7962 24.7038 33.8327 24.519 33.9558 24.3961L47.6332 10.7188C46.6202 9.50488 45.4953 8.37996 44.2812 7.36676L30.6039 21.0441C30.481 21.167 30.2955 21.2038 30.1357 21.1374C29.975 21.0708 29.8704 20.9142 29.8704 20.7404V1.39561C28.2926 1.25402 26.7077 1.25402 25.1301 1.39561V20.7404C25.1301 20.9142 25.0254 21.0708 24.8647 21.1374C24.7042 21.204 24.5193 21.1672 24.3966 21.0441L10.7188 7.36676C9.5049 8.37996 8.37977 9.5051 7.36678 10.7188L21.0442 24.3961C21.1671 24.519 21.2038 24.7038 21.1374 24.8643C21.0708 25.025 20.9142 25.1296 20.7404 25.1296H1.39563C1.32473 25.9187 1.28906 26.7143 1.28906 27.5C1.28906 28.2857 1.32473 29.0812 1.39563 29.8704H20.7404C20.9142 29.8704 21.0708 29.975 21.1374 30.1357C21.204 30.2962 21.1673 30.4809 21.0442 30.6038L7.36699 44.2812C8.3802 45.4951 9.50512 46.6202 10.719 47.6332L24.3964 33.9558C24.519 33.8327 24.7042 33.7962 24.8645 33.8626C25.0252 33.9292 25.1298 34.0858 25.1298 34.2596V53.6044Z" fill="#434343"/>
<path d="M27.5 54.5703C12.5733 54.5703 0.429688 42.4267 0.429688 27.5C0.429688 12.5733 12.5733 0.429688 27.5 0.429688C42.4267 0.429688 54.5703 12.5733 54.5703 27.5C54.5703 42.4267 42.4267 54.5703 27.5 54.5703ZM27.5 1.28906C13.0472 1.28906 1.28906 13.0472 1.28906 27.5C1.28906 41.9528 13.0472 53.7109 27.5 53.7109C41.9528 53.7109 53.7109 41.9528 53.7109 27.5C53.7109 13.0472 41.9528 1.28906 27.5 1.28906Z" fill="#434343"/>
<path d="M27.4996 49.5474C39.6761 49.5474 49.5471 39.6764 49.5471 27.4999C49.5471 15.3234 39.6761 5.45239 27.4996 5.45239C15.3231 5.45239 5.45215 15.3234 5.45215 27.4999C5.45215 39.6764 15.3231 49.5474 27.4996 49.5474Z" fill="#FFCF24"/>
<path d="M27.4996 49.977C15.1055 49.977 5.02246 39.8938 5.02246 27.4999C5.02246 15.106 15.1055 5.02271 27.4996 5.02271C39.8937 5.02271 49.9768 15.106 49.9768 27.4999C49.9768 39.8938 39.8935 49.977 27.4996 49.977ZM27.4996 5.88208C15.5797 5.88208 5.88184 15.5799 5.88184 27.4999C5.88184 39.4198 15.5797 49.1177 27.4996 49.1177C39.4196 49.1177 49.1174 39.4198 49.1174 27.4999C49.1174 15.5799 39.4196 5.88208 27.4996 5.88208Z" fill="#434343"/>
<path d="M27.5006 46.937C38.2354 46.937 46.9377 38.2347 46.9377 27.4999C46.9377 16.765 38.2354 8.06274 27.5006 8.06274C16.7658 8.06274 8.06348 16.765 8.06348 27.4999C8.06348 38.2347 16.7658 46.937 27.5006 46.937Z" fill="#F4EFED"/>
<path d="M27.5 8.06274C27.1395 8.06274 26.7813 8.07327 26.4258 8.09261C36.6609 8.65013 44.7887 17.1255 44.7887 27.4999C44.7887 37.8743 36.6609 46.3494 26.4258 46.9071C26.7813 46.9265 27.1395 46.937 27.5 46.937C38.2349 46.937 46.9371 38.2348 46.9371 27.4999C46.9371 16.765 38.2349 8.06274 27.5 8.06274Z" fill="#D6D1CF"/>
<path d="M27.5006 46.937C27.8611 46.937 28.219 46.9265 28.5748 46.9071C18.3397 46.3494 10.2119 37.8743 10.2119 27.4999C10.2119 17.1255 18.3397 8.65034 28.5748 8.09261C28.219 8.07327 27.8611 8.06274 27.5006 8.06274C16.7657 8.06274 8.06348 16.7652 8.06348 27.4999C8.06348 38.2348 16.7657 46.937 27.5006 46.937Z" fill="white"/>
<path d="M27.5 36.835C32.6556 36.835 36.835 32.6556 36.835 27.5C36.835 22.3444 32.6556 18.165 27.5 18.165C22.3444 18.165 18.165 22.3444 18.165 27.5C18.165 32.6556 22.3444 36.835 27.5 36.835Z" fill="#38AF41"/>
<path d="M27.5006 47.3667C16.5459 47.3667 7.63379 38.4545 7.63379 27.4999C7.63379 16.5452 16.5459 7.63306 27.5006 7.63306C38.4553 7.63306 47.3674 16.5452 47.3674 27.4999C47.3674 38.4545 38.4553 47.3667 27.5006 47.3667ZM27.5006 8.49243C17.0199 8.49243 8.49316 17.0192 8.49316 27.4999C8.49316 37.9806 17.0199 46.5073 27.5006 46.5073C37.9813 46.5073 46.508 37.9806 46.508 27.4999C46.508 17.0192 37.9813 8.49243 27.5006 8.49243Z" fill="#434343"/>
<path d="M10.9298 21.8106C10.8812 21.8106 10.8318 21.8024 10.7835 21.7848C10.5603 21.704 10.4449 21.4576 10.5259 21.2344C10.8563 20.3219 11.2695 19.4316 11.7542 18.5886C11.8723 18.3827 12.1346 18.3116 12.3407 18.4302C12.5465 18.5484 12.6174 18.8109 12.499 19.0167C12.0393 19.8168 11.6474 20.6614 11.3337 21.5272C11.2705 21.7019 11.1053 21.8106 10.9298 21.8106Z" fill="#434343"/>
<path d="M27.501 37.2646C22.1166 37.2646 17.7363 32.8842 17.7363 27.5C17.7363 22.1158 22.1166 17.7354 27.501 17.7354C32.8854 17.7354 37.2656 22.1158 37.2656 27.5C37.2656 32.8842 32.8852 37.2646 27.501 37.2646ZM27.501 18.5947C22.5905 18.5947 18.5957 22.5897 18.5957 27.5C18.5957 32.4103 22.5907 36.4053 27.501 36.4053C32.4112 36.4053 36.4062 32.4103 36.4062 27.5C36.4062 22.5897 32.4112 18.5947 27.501 18.5947Z" fill="#434343"/>
<path d="M24.2451 31.1849C24.1351 31.1849 24.0251 31.143 23.9413 31.059C23.7735 30.8912 23.7735 30.6192 23.9413 30.4514L30.4519 23.9408C30.6195 23.773 30.8919 23.773 31.0595 23.9408C31.2273 24.1086 31.2273 24.3806 31.0595 24.5484L24.5489 31.059C24.4651 31.1428 24.3551 31.1849 24.2451 31.1849Z" fill="#434343"/>
<path d="M30.7557 31.1849C30.6457 31.1849 30.5357 31.143 30.4519 31.059L23.9413 24.5484C23.7735 24.3806 23.7735 24.1086 23.9413 23.9408C24.1089 23.773 24.3813 23.773 24.5489 23.9408L31.0595 30.4514C31.2273 30.6192 31.2273 30.8912 31.0595 31.059C30.9757 31.1428 30.8657 31.1849 30.7557 31.1849Z" fill="#434343"/>
<path d="M27.5 18.5946C27.2626 18.5946 27.0703 18.4021 27.0703 18.1649V8.06274C27.0703 7.82556 27.2626 7.63306 27.5 7.63306C27.7372 7.63306 27.9297 7.82556 27.9297 8.06274V18.1649C27.9297 18.4021 27.7372 18.5946 27.5 18.5946Z" fill="#434343"/>
<path d="M27.5 47.3666C27.2626 47.3666 27.0703 47.1741 27.0703 46.9369V36.8347C27.0703 36.5975 27.2626 36.405 27.5 36.405C27.7372 36.405 27.9297 36.5975 27.9297 36.8347V46.9369C27.9297 47.1743 27.7372 47.3666 27.5 47.3666Z" fill="#434343"/>
<path d="M46.9381 27.9297H36.8359C36.5985 27.9297 36.4062 27.7374 36.4062 27.5C36.4062 27.2628 36.5985 27.0703 36.8359 27.0703H46.9381C47.1753 27.0703 47.3678 27.2628 47.3678 27.5C47.3678 27.7374 47.1755 27.9297 46.9381 27.9297Z" fill="#434343"/>
<path d="M18.1656 27.9297H8.06348C7.82629 27.9297 7.63379 27.7374 7.63379 27.5C7.63379 27.2628 7.82629 27.0703 8.06348 27.0703H18.1656C18.4028 27.0703 18.5953 27.2628 18.5953 27.5C18.5953 27.7374 18.4028 27.9297 18.1656 27.9297Z" fill="#434343"/>
<path d="M20.9001 21.3286C20.7901 21.3286 20.6803 21.2867 20.5963 21.2027L13.453 14.0594C13.2852 13.8916 13.2852 13.6196 13.453 13.4518C13.6206 13.284 13.8928 13.284 14.0606 13.4518L21.2039 20.5951C21.3717 20.7629 21.3717 21.0349 21.2039 21.2027C21.1201 21.2867 21.0101 21.3286 20.9001 21.3286Z" fill="#434343"/>
<path d="M41.2448 41.6738C41.1348 41.6738 41.0248 41.6319 40.9411 41.5479L33.7977 34.4046C33.6299 34.2368 33.6299 33.9648 33.7977 33.797C33.9653 33.6292 34.2377 33.6292 34.4053 33.797L41.5486 40.9401C41.7164 41.1079 41.7164 41.3799 41.5486 41.5477C41.4648 41.6317 41.3546 41.6738 41.2448 41.6738Z" fill="#434343"/>
<path d="M34.1015 21.3286C33.9915 21.3286 33.8815 21.2867 33.7977 21.2027C33.6299 21.0349 33.6299 20.7629 33.7977 20.5951L40.9411 13.4518C41.1086 13.284 41.3811 13.284 41.5486 13.4518C41.7164 13.6196 41.7164 13.8916 41.5486 14.0594L34.4053 21.2027C34.3215 21.2867 34.2115 21.3286 34.1015 21.3286Z" fill="#434343"/>
<path d="M13.7568 41.6738C13.6468 41.6738 13.5368 41.6319 13.453 41.5479C13.2852 41.3801 13.2852 41.1081 13.453 40.9404L20.5963 33.7972C20.7639 33.6294 21.0361 33.6294 21.2039 33.7972C21.3717 33.965 21.3717 34.237 21.2039 34.4048L14.0606 41.5481C13.9768 41.6317 13.8668 41.6738 13.7568 41.6738Z" fill="#434343"/>
<path d="M32.9539 24.2446C32.3467 24.8518 31.3623 24.8518 30.7552 24.2446C30.148 23.6375 30.148 22.6531 30.7552 22.0459C31.3623 21.4388 32.3467 21.4388 32.9539 22.0459C33.561 22.6531 33.561 23.6375 32.9539 24.2446Z" fill="#FFCF24"/>
<path d="M24.2449 32.9541C23.6377 33.5613 22.6533 33.5613 22.0462 32.9541C21.439 32.347 21.439 31.3626 22.0462 30.7554C22.6533 30.1483 23.6377 30.1483 24.2449 30.7554C24.852 31.3626 24.852 32.347 24.2449 32.9541Z" fill="#FFCF24"/>
<path d="M30.7552 32.9541C30.148 32.347 30.148 31.3626 30.7552 30.7554C31.3623 30.1483 32.3467 30.1483 32.9539 30.7554C33.561 31.3626 33.561 32.347 32.9539 32.9541C32.3467 33.5613 31.3623 33.5613 30.7552 32.9541Z" fill="#FFCF24"/>
<path d="M27.5001 29.055C28.3588 29.055 29.055 28.3588 29.055 27.5001C29.055 26.6414 28.3588 25.9453 27.5001 25.9453C26.6414 25.9453 25.9453 26.6414 25.9453 27.5001C25.9453 28.3588 26.6414 29.055 27.5001 29.055Z" fill="#FFCF24"/>
<path d="M22.0462 24.2446C21.439 23.6375 21.439 22.6531 22.0462 22.0459C22.6533 21.4388 23.6377 21.4388 24.2449 22.0459C24.852 22.6531 24.852 23.6375 24.2449 24.2446C23.6377 24.8518 22.6533 24.8518 22.0462 24.2446Z" fill="#FFCF24"/>
<path d="M31.8546 25.1286C31.3465 25.1286 30.8384 24.9352 30.4515 24.5483C29.6776 23.7747 29.6776 22.5157 30.4515 21.742C31.2254 20.9682 32.4841 20.9682 33.2578 21.742C34.0317 22.5157 34.0317 23.7747 33.2578 24.5483C32.8709 24.9352 32.3627 25.1286 31.8546 25.1286ZM31.8546 22.0207C31.5665 22.0207 31.2784 22.1302 31.0591 22.3496C30.6204 22.7883 30.6204 23.502 31.0591 23.9407C31.4978 24.3794 32.2115 24.3794 32.6502 23.9407C33.0889 23.502 33.0889 22.7883 32.6502 22.3496C32.4308 22.1302 32.1427 22.0207 31.8546 22.0207Z" fill="#434343"/>
<path d="M23.1457 33.8381C22.6376 33.8381 22.1292 33.6447 21.7425 33.2578C20.9686 32.4841 20.9686 31.2251 21.7425 30.4515C22.5164 29.6776 23.7751 29.6776 24.5488 30.4515C25.3227 31.2251 25.3227 32.4841 24.5488 33.2578C24.1619 33.6447 23.6538 33.8381 23.1457 33.8381ZM23.1457 30.7301C22.8576 30.7301 22.5694 30.8397 22.3501 31.0591C21.9114 31.4978 21.9114 32.2115 22.3501 32.6502C22.7888 33.0889 23.5025 33.0889 23.9412 32.6502C24.3799 32.2115 24.3799 31.4978 23.9412 31.0591C23.7219 30.8397 23.4338 30.7301 23.1457 30.7301Z" fill="#434343"/>
<path d="M31.8546 33.8381C31.3465 33.8381 30.8384 33.6447 30.4515 33.2578C29.6776 32.4841 29.6776 31.2251 30.4515 30.4515C31.2254 29.6776 32.4841 29.6776 33.2578 30.4515C34.0317 31.2251 34.0317 32.4841 33.2578 33.2578C32.8709 33.6447 32.3627 33.8381 31.8546 33.8381ZM31.8546 30.7301C31.5665 30.7301 31.2784 30.8397 31.0591 31.0591C30.6204 31.4978 30.6204 32.2115 31.0591 32.6502C31.4978 33.0889 32.2115 33.0889 32.6502 32.6502C33.0889 32.2115 33.0889 31.4978 32.6502 31.0591C32.4308 30.8397 32.1427 30.7301 31.8546 30.7301Z" fill="#434343"/>
<path d="M27.5001 29.4836C26.992 29.4836 26.4837 29.2902 26.097 28.9033C25.3231 28.1296 25.3231 26.8707 26.097 26.097C26.8709 25.3231 28.1296 25.3231 28.9035 26.097C29.6774 26.8707 29.6774 28.1296 28.9035 28.9033C28.5163 29.2902 28.0082 29.4836 27.5001 29.4836ZM27.5001 26.3757C27.212 26.3757 26.9239 26.4852 26.7046 26.7046C26.2661 27.1433 26.2661 27.857 26.7046 28.2957C27.1433 28.7344 27.857 28.7344 28.2957 28.2957C28.7344 27.857 28.7344 27.1433 28.2957 26.7046C28.0764 26.4852 27.7882 26.3757 27.5001 26.3757Z" fill="#434343"/>
<path d="M23.1457 25.1286C22.6376 25.1286 22.1292 24.9352 21.7425 24.5483C20.9686 23.7747 20.9686 22.5157 21.7425 21.742C22.5164 20.9682 23.7751 20.9682 24.5488 21.742C25.3227 22.5157 25.3227 23.7747 24.5488 24.5483C24.1619 24.9352 23.6538 25.1286 23.1457 25.1286ZM23.1457 22.0207C22.8576 22.0207 22.5694 22.1302 22.3501 22.3496C21.9114 22.7883 21.9114 23.502 22.3501 23.9407C22.7888 24.3794 23.5025 24.3794 23.9412 23.9407C24.3799 23.502 24.3799 22.7883 23.9412 22.3496C23.7219 22.1302 23.4338 22.0207 23.1457 22.0207Z" fill="#434343"/>
</svg>
