<svg width="71" height="71" viewBox="0 0 71 71" fill="none" xmlns="http://www.w3.org/2000/svg">
<path d="M45.067 61.7731H25.9336C18.275 61.7731 12.0664 55.5645 12.0664 47.9059V41.811H58.9342V47.9059C58.9342 55.5645 52.7256 61.7731 45.067 61.7731Z" fill="#38AF41"/>
<path d="M56.1602 41.811V47.9059C56.1602 55.5645 49.9515 61.7731 42.293 61.7731H45.0664C52.725 61.7731 58.9336 55.5645 58.9336 47.9059V41.811H56.1602Z" fill="#5D8E33"/>
<path d="M14.8398 41.811V47.9059C14.8398 55.5645 21.0485 61.7731 28.707 61.7731H25.9336C18.275 61.7731 12.0664 55.5645 12.0664 47.9059V41.811H14.8398Z" fill="#99CA6F"/>
<path d="M45.067 62.3278H25.9336C17.9813 62.3278 11.5117 55.8582 11.5117 47.9059V41.811C11.5117 41.5048 11.7602 41.2563 12.0664 41.2563H58.9339C59.2401 41.2563 59.4886 41.5048 59.4886 41.811V47.9059C59.4889 55.8582 53.0193 62.3278 45.067 62.3278ZM12.6211 42.3657V47.9059C12.6211 55.2464 18.5931 61.2184 25.9336 61.2184H45.0667C52.4072 61.2184 58.3792 55.2464 58.3792 47.9059V42.3657H12.6211Z" fill="#434343"/>
<path d="M50.1146 48.7788H20.8854C9.9633 48.7788 1.10938 39.9246 1.10938 29.0028C1.10938 18.0807 9.9633 9.22681 20.8854 9.22681H50.1146C61.0367 9.22681 69.8906 18.0807 69.8906 29.0028C69.8906 39.9246 61.0367 48.7788 50.1146 48.7788Z" fill="#38AF41"/>
<path d="M20.8854 48.7788H23.6588C12.7367 48.7788 3.88281 39.9246 3.88281 29.0028C3.88281 18.0807 12.7367 9.22681 23.6588 9.22681H20.8854C9.9633 9.22681 1.10938 18.0807 1.10938 29.0028C1.10938 39.9246 9.9633 48.7788 20.8854 48.7788Z" fill="#99CA6F"/>
<path d="M50.1152 9.22681H47.3418C58.2639 9.22681 67.1178 18.0807 67.1178 29.0028C67.1178 39.9249 58.2639 48.7788 47.3418 48.7788H50.1152C61.0373 48.7788 69.8912 39.9249 69.8912 29.0028C69.8912 18.0807 61.0373 9.22681 50.1152 9.22681Z" fill="#5D8E33"/>
<path d="M3.69824 19.2256L64.2535 42.8245C65.4341 41.6166 66.4597 40.2582 67.302 38.7808L6.7468 15.1819C5.56615 16.3894 4.54054 17.7479 3.69824 19.2256Z" fill="#F4EFED"/>
<path d="M65.0081 37.8865C64.2521 39.3872 63.311 40.7778 62.2139 42.0292L64.2532 42.824C64.2535 42.8238 64.2535 42.8238 64.2537 42.8235C64.5253 42.5456 64.7876 42.2591 65.0425 41.9656C65.0783 41.9246 65.1141 41.8838 65.1493 41.8425C65.5392 41.386 65.9092 40.9115 66.2567 40.4203C66.2681 40.4042 66.2795 40.3884 66.2908 40.3726C66.6519 39.8592 66.9895 39.3281 67.3017 38.7806L65.0081 37.8865Z" fill="#D6D1CF"/>
<path d="M1.10938 29.003C1.10938 29.8289 1.16595 30.641 1.26413 31.4403H69.7356C69.834 30.641 69.8903 29.8289 69.8903 29.003C69.8903 28.177 69.8338 27.365 69.7356 26.5657H1.26413C1.16595 27.365 1.10938 28.177 1.10938 29.003Z" fill="#F4EFED"/>
<path d="M69.87 28.169C69.8647 28.0525 69.86 27.9358 69.8528 27.8196C69.8462 27.705 69.8356 27.5919 69.8267 27.4779C69.8023 27.1723 69.7732 26.8677 69.7363 26.5657V26.5654H66.9629C67.0613 27.3647 67.1176 28.1768 67.1176 29.0027C67.1176 29.8287 67.0611 30.6407 66.9629 31.44H69.7363V31.4397C69.7735 31.1377 69.8023 30.8332 69.8267 30.5276C69.8353 30.4136 69.8459 30.3004 69.8528 30.1859C69.86 30.0699 69.8647 29.9532 69.87 29.8364C69.8817 29.5596 69.8911 29.2823 69.8911 29.0024C69.8911 28.7232 69.8814 28.4461 69.87 28.169Z" fill="#D6D1CF"/>
<path d="M6.7468 42.824L67.302 19.2251C66.4597 17.7477 65.4341 16.389 64.2535 15.1814L3.69824 38.7803C4.54054 40.2577 5.56615 41.6164 6.7468 42.824Z" fill="#F4EFED"/>
<path d="M67.3024 19.2253C66.9901 18.6775 66.6526 18.1467 66.2915 17.6333C66.2804 17.6172 66.2688 17.6014 66.2577 17.5856C65.9099 17.0942 65.5399 16.6196 65.1497 16.1629C65.1148 16.1218 65.0792 16.0813 65.044 16.0408C64.7889 15.7471 64.5262 15.4601 64.2542 15.1819L62.2148 15.9768C63.312 17.2284 64.253 18.6187 65.0091 20.1194L67.3024 19.2253Z" fill="#D6D1CF"/>
<path d="M5.99188 37.8865C6.74791 39.3872 7.68894 40.7778 8.78611 42.0292L6.7468 42.824C6.74653 42.8238 6.74653 42.8238 6.74625 42.8235C6.47473 42.5456 6.21236 42.2591 5.95748 41.9656C5.92171 41.9246 5.88593 41.8838 5.85071 41.8425C5.46076 41.386 5.09079 40.9115 4.74327 40.4203C4.7319 40.4042 4.72053 40.3884 4.70916 40.3726C4.34806 39.8592 4.01053 39.3281 3.69824 38.7806L5.99188 37.8865Z" fill="white"/>
<path d="M1.13045 28.169C1.13572 28.0525 1.14044 27.9358 1.14765 27.8196C1.1543 27.705 1.16484 27.5919 1.17372 27.4779C1.19812 27.1723 1.22725 26.8677 1.26413 26.5657V26.5654H4.03757C3.93939 27.3647 3.88281 28.1768 3.88281 29.0027C3.88281 29.8287 3.93939 30.6407 4.03757 31.44H1.26413V31.4397C1.22697 31.1377 1.19812 30.8332 1.17372 30.5276C1.16512 30.4136 1.15458 30.3004 1.14765 30.1859C1.14044 30.0699 1.13572 29.9532 1.13045 29.8364C1.11908 29.5599 1.10938 29.2826 1.10938 29.003C1.10938 28.7232 1.11908 28.4461 1.13045 28.169Z" fill="white"/>
<path d="M3.69824 19.2253C4.01053 18.6775 4.34806 18.1467 4.70916 17.6333C4.72053 17.6172 4.7319 17.6014 4.743 17.5856C5.09079 17.0942 5.46076 16.6196 5.85098 16.1629C5.88593 16.1218 5.92143 16.0813 5.95665 16.0408C6.21181 15.7471 6.47445 15.4601 6.74653 15.1819L8.78584 15.9768C7.68866 17.2284 6.74764 18.6187 5.9916 20.1194L3.69824 19.2253Z" fill="white"/>
<path d="M50.1146 49.3335H20.8854C9.67486 49.3335 0.554688 40.213 0.554688 29.0028C0.554688 17.7926 9.67486 8.67212 20.8854 8.67212H50.1149C61.3251 8.67212 70.4456 17.7923 70.4456 29.0028C70.4456 40.2133 61.3251 49.3335 50.1146 49.3335ZM20.8854 9.78149C10.2867 9.78149 1.66406 18.4041 1.66406 29.0028C1.66406 39.6015 10.2867 48.2241 20.8854 48.2241H50.1149C60.7136 48.2241 69.3362 39.6015 69.3362 29.0028C69.3362 18.4041 60.7136 9.78149 50.1149 9.78149H20.8854Z" fill="#434343"/>
<path d="M33.0625 13.374H37.9371V48.7789H33.0625V13.374Z" fill="#F4EFED"/>
<path d="M37.9371 49.3336H33.0625C32.7563 49.3336 32.5078 49.0851 32.5078 48.7789V13.374C32.5078 13.0678 32.7563 12.8193 33.0625 12.8193H37.9371C38.2433 12.8193 38.4918 13.0678 38.4918 13.374V48.7789C38.4918 49.0851 38.2436 49.3336 37.9371 49.3336ZM33.6172 48.2242H37.3824V13.9287H33.6172V48.2242Z" fill="#434343"/>
<path d="M6.74699 43.3787C6.60028 43.3787 6.45661 43.3205 6.35011 43.2118C5.13396 41.9679 4.07978 40.5695 3.2164 39.0552C3.13653 38.9152 3.12155 38.7471 3.17536 38.5951C3.22916 38.4431 3.34648 38.3222 3.4968 38.2637L64.052 14.6651C64.2589 14.5838 64.4944 14.6351 64.65 14.794C65.8661 16.0379 66.9206 17.4366 67.7837 18.9506C67.8636 19.0906 67.8785 19.2587 67.8247 19.4107C67.7709 19.5627 67.6536 19.6836 67.5033 19.7421L6.94806 43.341C6.88261 43.3665 6.81438 43.3787 6.74699 43.3787ZM4.50827 39.0599C5.19497 40.176 5.99373 41.2199 6.89038 42.1728L66.4915 18.9459C65.8048 17.8298 65.0064 16.7859 64.1094 15.8332L4.50827 39.0599Z" fill="#434343"/>
<path d="M69.7356 31.995H1.26441C0.984293 31.995 0.747996 31.7861 0.713883 31.5079C0.606828 30.6376 0.554688 29.8184 0.554688 29.003C0.554688 28.1876 0.606828 27.3683 0.713883 26.498C0.747996 26.2201 0.984293 26.011 1.26441 26.011H69.7359C70.016 26.011 70.2523 26.2198 70.2864 26.498C70.3934 27.3683 70.4456 28.1876 70.4456 29.003C70.4456 29.8186 70.3934 30.6379 70.2864 31.5079C70.252 31.7858 70.016 31.995 69.7356 31.995ZM1.76058 30.8856H69.2397C69.3043 30.2394 69.3362 29.6195 69.3362 29.003C69.3362 28.3864 69.3046 27.7666 69.2397 27.1204H1.76058C1.69568 27.7666 1.66406 28.3864 1.66406 29.003C1.66406 29.6195 1.69568 30.2394 1.76058 30.8856Z" fill="#434343"/>
<path d="M64.2531 43.3786C64.1854 43.3786 64.1172 43.3664 64.052 43.3406L3.4968 19.742C3.34648 19.6835 3.22916 19.5626 3.17536 19.4106C3.12155 19.2586 3.13653 19.0908 3.2164 18.9505C4.0795 17.4364 5.13396 16.0378 6.35011 14.7939C6.5057 14.635 6.74089 14.584 6.94806 14.6649L67.5033 38.2636C67.6536 38.3221 67.7709 38.4433 67.8247 38.595C67.8785 38.747 67.8636 38.9148 67.7837 39.0551C66.9203 40.5694 65.8661 41.9681 64.65 43.2117C64.5435 43.3207 64.3998 43.3786 64.2531 43.3786ZM4.50827 18.9457L64.1094 42.1727C65.0061 41.2198 65.8048 40.1761 66.4915 39.0598L6.89038 15.8331C5.99373 16.7858 5.19497 17.8297 4.50827 18.9457Z" fill="#434343"/>
<path d="M49.8236 44.6318H21.1767C12.5452 44.6318 5.54785 37.6344 5.54785 29.0029C5.54785 20.3714 12.5452 13.374 21.1767 13.374H49.8233C58.4548 13.374 65.4522 20.3714 65.4522 29.0029C65.4522 37.6344 58.4551 44.6318 49.8236 44.6318Z" fill="#FFCF24"/>
<path d="M38.2339 21.2301H32.7672C28.4284 21.2301 24.9111 17.7128 24.9111 13.374H46.0899C46.0899 17.7128 42.5727 21.2301 38.2339 21.2301Z" fill="#F4EFED"/>
<path d="M49.8236 45.1865H21.1767C12.2532 45.1865 4.99316 37.9264 4.99316 29.0029C4.99316 20.0794 12.2532 12.8193 21.1767 12.8193H49.8233C58.7468 12.8193 66.0068 20.0794 66.0068 29.0029C66.0068 37.9264 58.7471 45.1865 49.8236 45.1865ZM21.1767 13.9287C12.8647 13.9287 6.10254 20.6909 6.10254 29.0029C6.10254 37.3149 12.8647 44.0771 21.1767 44.0771H49.8233C58.1353 44.0771 64.8975 37.3149 64.8975 29.0029C64.8975 20.6909 58.1353 13.9287 49.8233 13.9287H21.1767Z" fill="#434343"/>
<path d="M10.9038 21.1121C10.8067 21.1121 10.7083 21.0866 10.6187 21.0328C10.356 20.8749 10.2712 20.5341 10.429 20.2714C11.0702 19.2045 11.9746 18.3655 12.9764 17.909C13.2543 17.782 13.584 17.9046 13.7111 18.1836C13.8381 18.4623 13.7152 18.7913 13.4365 18.9183C12.6485 19.2774 11.8992 19.9791 11.38 20.8428C11.2757 21.0161 11.0921 21.1121 10.9038 21.1121Z" fill="#434343"/>
<path d="M38.2329 21.7847H32.7662C28.1285 21.7847 24.3555 18.0118 24.3555 13.374C24.3555 13.0678 24.604 12.8193 24.9102 12.8193H46.0889C46.2359 12.8193 46.3771 12.8779 46.4811 12.9819C46.5851 13.0859 46.6436 13.227 46.6436 13.374C46.6439 18.0115 42.8706 21.7847 38.2329 21.7847ZM25.4859 13.9287C25.7702 17.6967 28.9269 20.6754 32.7662 20.6754H38.2329C42.0725 20.6754 45.2292 17.6967 45.5135 13.9287H25.4859Z" fill="#434343"/>
<path d="M21.3248 27.7518C21.0491 27.7088 20.7814 27.7174 20.5291 27.769C20.9265 27.3136 21.1414 26.6948 21.0519 26.0251C20.9207 25.0424 20.1108 24.2514 19.1257 24.1422C17.7994 23.9949 16.6768 25.0294 16.6768 26.3257C16.6768 26.8787 16.8825 27.3827 17.2198 27.769C16.9677 27.7174 16.6998 27.7088 16.4241 27.7518C15.462 27.9016 14.6976 28.7078 14.5925 29.6757C14.4486 30.9998 15.482 32.1194 16.7766 32.1194C17.1543 32.1194 17.5096 32.0234 17.82 31.8551C17.927 31.7971 18.0499 31.9034 18.0141 32.0196L17.4425 33.8772H18.779H18.9698H20.3064L19.7347 32.0196C19.699 31.9031 19.8218 31.7969 19.9289 31.8551C20.2392 32.0234 20.5942 32.1194 20.972 32.1194C22.2669 32.1194 23.3 30.9998 23.1561 29.6757C23.0515 28.7078 22.2869 27.9018 21.3248 27.7518Z" fill="#FF2F04"/>
<path d="M30.5484 25.8038L30.2097 25.4652C29.1722 24.4276 27.4898 24.4276 26.452 25.4652C25.4144 26.5027 25.4144 28.1851 26.452 29.2229L30.5484 33.3193L34.6447 29.2229C35.6823 28.1854 35.6823 26.503 34.6447 25.4652C33.6072 24.4276 31.9248 24.4276 30.887 25.4652L30.5484 25.8038Z" fill="#FF2F04"/>
<path d="M41.2969 33.8774L37.9277 29.0028L41.2969 24.1282L44.6661 29.0028L41.2969 33.8774Z" fill="#FF2F04"/>
<path d="M53.2583 33.8774L52.682 32.0039C53.6402 32.5334 54.8694 32.3936 55.6823 31.5807C56.6669 30.5961 56.6669 28.9997 55.6823 28.0151L51.7953 24.1282L47.9083 28.0151C46.9238 28.9997 46.9238 30.5961 47.9083 31.5807C48.7212 32.3936 49.9504 32.5334 50.9087 32.0039L50.3321 33.8774H53.2583Z" fill="#FF2F04"/>
<path d="M20.3061 34.4322H17.4423C17.2662 34.4322 17.1006 34.3487 16.996 34.207C16.8915 34.0656 16.8604 33.8828 16.912 33.7145L17.2445 32.6339C16.324 32.7934 15.3542 32.4578 14.7274 31.7595C14.2062 31.1784 13.9558 30.3972 14.0407 29.6159C14.1696 28.428 15.1021 27.429 16.2702 27.2152C16.1726 26.9309 16.1218 26.6305 16.1218 26.3257C16.1218 25.5439 16.4563 24.7962 17.039 24.2745C17.6214 23.7531 18.4047 23.5043 19.1865 23.5909C20.4212 23.7279 21.4369 24.7205 21.601 25.9516C21.6585 26.382 21.6138 26.8141 21.4765 27.2152C22.6452 27.429 23.5782 28.428 23.7072 29.6162C23.7921 30.3974 23.5419 31.1787 23.0208 31.7597C22.3942 32.4581 21.4244 32.7937 20.5036 32.6342L20.8361 33.7147C20.888 33.8831 20.8567 34.0659 20.7521 34.2073C20.6478 34.3487 20.4822 34.4322 20.3061 34.4322ZM18.1933 33.3229H19.5554L19.2045 32.1832C19.121 31.9126 19.2092 31.6213 19.4289 31.4413C19.6469 31.263 19.947 31.2342 20.1932 31.3679C20.4345 31.4988 20.6964 31.565 20.972 31.565C21.438 31.565 21.8839 31.3659 22.1954 31.0187C22.511 30.6667 22.6563 30.2113 22.6048 29.736C22.5265 29.0149 21.9522 28.4111 21.2391 28.2999C21.0367 28.2683 20.835 28.2724 20.6403 28.3124C20.4079 28.3601 20.1697 28.2538 20.0499 28.048C19.9301 27.8423 19.9547 27.5832 20.1112 27.4041C20.4273 27.0418 20.5663 26.5781 20.5019 26.0983C20.404 25.3659 19.7997 24.7751 19.0645 24.6936C18.5891 24.6409 18.1318 24.7854 17.7793 25.1013C17.4312 25.4127 17.2315 25.8593 17.2315 26.3257C17.2315 26.7212 17.3757 27.1042 17.6375 27.4041C17.794 27.5832 17.8189 27.8425 17.6991 28.048C17.5793 28.2536 17.3405 28.3592 17.1086 28.3124C16.9137 28.2724 16.7123 28.2683 16.5096 28.2999C15.7968 28.4111 15.2224 29.0149 15.1439 29.736C15.0923 30.2113 15.2377 30.6667 15.5533 31.0187C15.865 31.3659 16.3107 31.565 16.7767 31.565C17.0523 31.565 17.3141 31.4988 17.5557 31.3679C17.802 31.2345 18.1018 31.263 18.3195 31.4411C18.5392 31.6208 18.6274 31.912 18.5444 32.1827L18.1933 33.3229Z" fill="#434343"/>
<path d="M30.5478 33.8737C30.4058 33.8737 30.2638 33.8196 30.1557 33.7112L26.0593 29.6148C24.8071 28.3626 24.8071 26.3252 26.059 25.0727C27.294 23.838 29.2915 23.8208 30.5478 25.0206C31.8039 23.8208 33.8019 23.8383 35.0364 25.0727C35.6432 25.6793 35.9771 26.4858 35.9771 27.3436C35.9771 28.2015 35.6429 29.008 35.0364 29.6145L30.94 33.7109C30.8318 33.8196 30.6898 33.8737 30.5478 33.8737ZM28.3305 25.2425C27.7922 25.2425 27.2535 25.4474 26.8436 25.8571C26.0241 26.6769 26.0241 28.0107 26.8436 28.8305L30.5478 32.5344L34.252 28.8305C34.6492 28.4333 34.8677 27.9055 34.8677 27.3439C34.8677 26.7826 34.6489 26.2545 34.252 25.8574C33.4322 25.0375 32.0987 25.0378 31.2789 25.8574L30.94 26.1963C30.836 26.3003 30.6948 26.3588 30.5478 26.3588C30.4006 26.3588 30.2594 26.3003 30.1554 26.1963L29.8168 25.8574C29.4071 25.4474 28.8688 25.2425 28.3305 25.2425Z" fill="#434343"/>
<path d="M41.2968 34.4321C41.1146 34.4321 40.9441 34.3425 40.8406 34.1927L37.4714 29.3181C37.3403 29.1281 37.3403 28.8771 37.4714 28.6874L40.8406 23.8128C40.9441 23.6631 41.1146 23.5735 41.2968 23.5735C41.4791 23.5735 41.6496 23.6631 41.7531 23.8128L45.1222 28.6874C45.2534 28.8774 45.2534 29.1284 45.1225 29.3181L41.7533 34.1927C41.6496 34.3425 41.4791 34.4321 41.2968 34.4321ZM38.6019 29.0028L41.2968 32.9019L43.9918 29.0028L41.2968 25.1039L38.6019 29.0028Z" fill="#434343"/>
<path d="M53.2588 34.4322H50.3328C50.1567 34.4322 49.9911 34.3487 49.8865 34.207C49.782 34.0656 49.7509 33.8828 49.8025 33.7145L50.0693 32.8475C49.1483 32.9587 48.1973 32.6536 47.5166 31.973C46.3174 30.7738 46.3174 28.8224 47.5164 27.6232L51.4036 23.7362C51.6202 23.5196 51.9713 23.5196 52.1879 23.7362L56.0749 27.6232C57.2742 28.8224 57.2742 30.7738 56.0749 31.973C55.394 32.6536 54.4419 32.959 53.522 32.8475L53.7888 33.7145C53.8404 33.8828 53.8093 34.0656 53.7047 34.207C53.6002 34.3487 53.4349 34.4322 53.2588 34.4322ZM51.0836 33.3229H52.5074L52.1519 32.1672C52.0853 31.9511 52.1569 31.7162 52.3322 31.5736C52.5074 31.4308 52.7521 31.4089 52.9504 31.5187C53.7125 31.9397 54.6749 31.8041 55.2903 31.1887C56.0569 30.4218 56.0569 29.1743 55.2903 28.4075L51.7955 24.913L48.3007 28.4075C47.5341 29.1743 47.5341 30.4218 48.3007 31.1887C48.9161 31.8041 49.8782 31.9395 50.6406 31.5187C50.8387 31.4092 51.083 31.4311 51.2588 31.5736C51.4344 31.7162 51.5057 31.9511 51.4391 32.1674L51.0836 33.3229Z" fill="#434343"/>
</svg>
