<svg width="64" height="64" viewBox="0 0 64 64" fill="none" xmlns="http://www.w3.org/2000/svg">
<path d="M6.12207 7.25V16.5H57.8786V7.25C57.8786 3.79825 55.0803 1 51.6286 1H12.3721C8.92032 1 6.12207 3.79825 6.12207 7.25Z" fill="#38AF41"/>
<path d="M6.12207 16.5V32V47.5V56.75C6.12207 60.2018 8.92032 63 12.3721 63H51.6286C55.0803 63 57.8786 60.2018 57.8786 56.75V47.5V32V16.5H6.12207Z" fill="#F4EFED"/>
<path d="M51.6279 1H49.1279C52.5797 1 55.3779 3.79825 55.3779 7.25V16.5H57.8779V7.25C57.8779 3.79825 55.0797 1 51.6279 1Z" fill="#5D8E33"/>
<path d="M12.3721 1H14.8721C11.4203 1 8.62207 3.79825 8.62207 7.25V16.5H6.12207V7.25C6.12207 3.79825 8.92032 1 12.3721 1Z" fill="#99CA6F"/>
<path d="M55.3779 16.5V32V47.5V56.75C55.3779 60.2018 52.5797 63 49.1279 63H51.6279C55.0797 63 57.8779 60.2018 57.8779 56.75V47.5V32V16.5H55.3779Z" fill="#D6D1CF"/>
<path d="M8.62207 16.5V32V47.5V56.75C8.62207 60.2018 11.4203 63 14.8721 63H12.3721C8.92032 63 6.12207 60.2018 6.12207 56.75V47.5V32V16.5H8.62207Z" fill="white"/>
<path d="M57.8786 17H6.12207C5.84607 17 5.62207 16.7763 5.62207 16.5V7.25C5.62207 3.528 8.65007 0.5 12.3721 0.5H51.6286C55.3506 0.5 58.3786 3.528 58.3786 7.25V16.5C58.3786 16.7763 58.1546 17 57.8786 17ZM6.62207 16H57.3786V7.25C57.3786 4.0795 54.7993 1.5 51.6286 1.5H12.3721C9.20157 1.5 6.62207 4.0795 6.62207 7.25V16Z" fill="#434343"/>
<path d="M51.6286 63.5H12.3721C8.65007 63.5 5.62207 60.472 5.62207 56.75V16.5C5.62207 16.224 5.84607 16 6.12207 16H57.8786C58.1548 16 58.3786 16.224 58.3786 16.5V56.75C58.3786 60.472 55.3503 63.5 51.6286 63.5ZM6.62207 17V56.75C6.62207 59.9205 9.20157 62.5 12.3721 62.5H51.6286C54.7993 62.5 57.3786 59.9205 57.3786 56.75V17H6.62207Z" fill="#434343"/>
<path d="M8.12207 24.3611C7.84607 24.3611 7.62207 24.1371 7.62207 23.8611V20.8611C7.62207 20.5851 7.84607 20.3611 8.12207 20.3611C8.39807 20.3611 8.62207 20.5851 8.62207 20.8611V23.8611C8.62207 24.1371 8.39807 24.3611 8.12207 24.3611Z" fill="#434343"/>
<path d="M40.627 63.5H23.375C23.099 63.5 22.875 63.2762 22.875 63V16.5C22.875 16.224 23.099 16 23.375 16H40.627C40.9033 16 41.127 16.224 41.127 16.5V63C41.127 63.2762 40.903 63.5 40.627 63.5ZM23.875 62.5H40.127V17H23.875V62.5Z" fill="#434343"/>
<path d="M57.8786 48.876H6.12207C5.84607 48.876 5.62207 48.6523 5.62207 48.376V31.1238C5.62207 30.8478 5.84607 30.6238 6.12207 30.6238H57.8786C58.1548 30.6238 58.3786 30.8478 58.3786 31.1238V48.376C58.3786 48.6523 58.1546 48.876 57.8786 48.876ZM6.62207 47.876H57.3786V31.6238H6.62207V47.876Z" fill="#434343"/>
<path d="M14.0254 12.1446V5.2509C14.0254 4.88865 14.3176 4.6084 14.6681 4.6084H14.7031H14.7149H16.3274C17.5541 4.6084 18.5474 5.60165 18.5474 6.8284C18.5474 7.3309 18.3839 7.7864 18.1034 8.1604C18.8046 8.6044 19.2836 9.3874 19.2836 10.2751C19.2836 11.6656 18.1621 12.7874 16.7831 12.7874H14.7151C14.7034 12.7874 14.7034 12.7756 14.7034 12.7756C14.6801 12.7756 14.6801 12.7874 14.6684 12.7874C14.3174 12.7874 14.0254 12.4951 14.0254 12.1446ZM15.3224 7.7749H16.3274C16.8414 7.7749 17.2504 7.34265 17.2504 6.8284C17.2504 6.3144 16.8411 5.9054 16.3274 5.9054H15.3224V7.7749ZM15.3224 11.4904H16.7829C17.4489 11.4789 17.9864 10.9529 17.9864 10.2751C17.9864 9.60915 17.4489 9.0834 16.7829 9.07165H15.3224V11.4904Z" fill="#434343"/>
<path d="M20.9307 5.2509C20.9307 4.88865 21.2112 4.6084 21.5734 4.6084C21.9237 4.6084 22.2277 4.8889 22.2277 5.2509V12.1446C22.2277 12.5069 21.9237 12.7874 21.5734 12.7874C21.2112 12.7874 20.9307 12.5069 20.9307 12.1446V5.2509Z" fill="#434343"/>
<path d="M25.6973 12.1449C25.6973 12.4954 25.4051 12.7876 25.0663 12.7876C24.7043 12.7876 24.4238 12.4954 24.4238 12.1449V5.35636C24.4238 5.35636 24.4238 5.35637 24.4238 5.34462C24.4121 5.14612 24.5056 4.93562 24.6808 4.80712C24.9731 4.60862 25.3703 4.66687 25.5688 4.94737L29.3431 10.1704V5.35636C29.3431 5.01761 29.6236 4.72536 29.9741 4.72536C30.3246 4.72536 30.6168 5.01737 30.6168 5.35636V12.1449C30.6168 12.4954 30.3246 12.7876 29.9741 12.7876C29.7873 12.7876 29.6121 12.6941 29.4951 12.5539C29.4716 12.5304 29.4483 12.5071 29.4368 12.4836L25.6978 7.29587V12.1449H25.6973Z" fill="#434343"/>
<path d="M32.4727 8.59276C32.4727 6.24426 34.4122 4.37451 36.7842 4.37451C37.7774 4.37451 38.7239 4.71326 39.4482 5.28601C39.7519 5.50801 39.7987 5.94026 39.5767 6.23251C39.3547 6.51301 38.9224 6.57126 38.6304 6.33751C38.1279 5.95201 37.4852 5.70651 36.7842 5.70651C35.9429 5.70651 35.2067 6.02201 34.6809 6.55951C34.1319 7.08526 33.8047 7.79801 33.8047 8.59251C33.8047 9.36351 34.1319 10.0765 34.6809 10.6023C35.2069 11.1398 35.9429 11.4553 36.7842 11.4553C37.3684 11.4553 37.9174 11.28 38.3849 11.0113V9.41051H36.7139C36.3517 9.41051 36.0479 9.10676 36.0479 8.74451C36.0479 8.37051 36.3517 8.09026 36.7139 8.09026H39.0157H39.0274H39.0392C39.4129 8.09026 39.7169 8.37076 39.7169 8.74451V11.3268C39.7169 11.4085 39.6934 11.4553 39.6817 11.5253C39.6699 11.5488 39.6699 11.5605 39.6582 11.5838V11.5955C39.6232 11.7005 39.5532 11.794 39.4362 11.876C38.7002 12.4485 37.7769 12.7875 36.7839 12.7875C34.4119 12.7875 32.4727 10.9298 32.4727 8.59276Z" fill="#434343"/>
<path d="M48.7944 5.62501C49.5187 6.39626 49.9747 7.42451 49.9747 8.58126C49.9747 9.73801 49.5189 10.778 48.7944 11.5375C48.1049 12.297 47.0767 12.7878 46.0017 12.7878C44.8802 12.7878 43.8517 12.297 43.1392 11.5375C42.4149 10.778 41.9824 9.73801 41.9824 8.58126C41.9824 7.42451 42.4147 6.39626 43.1392 5.62501C43.8519 4.85376 44.8802 4.37476 46.0017 4.37476C47.0767 4.37476 48.1049 4.85376 48.7944 5.62501ZM48.6424 8.58101C48.6424 7.78651 48.3267 7.05051 47.8477 6.53626C47.3569 6.01051 46.7027 5.70676 46.0014 5.70676C45.2537 5.70676 44.5994 6.01051 44.1087 6.53626C43.6179 7.05051 43.3142 7.78651 43.3142 8.58101C43.3142 9.37551 43.6179 10.1118 44.1087 10.614C44.5994 11.14 45.2537 11.4553 46.0014 11.4553C46.7027 11.4553 47.3569 11.1398 47.8477 10.614C48.3269 10.1118 48.6424 9.37551 48.6424 8.58101Z" fill="#434343"/>
<path d="M32.0001 43.8349L27.9683 45.9544L28.7383 41.4649L25.4766 38.2854L29.9841 37.6304L32.0001 33.5459L34.0158 37.6304L38.5236 38.2854L35.2618 41.4649L36.0318 45.9544L32.0001 43.8349Z" fill="#FFCF24"/>
<path d="M36.0315 46.4544C35.952 46.4544 35.872 46.4354 35.7988 46.3969L31.9998 44.3997L28.2008 46.3969C28.0325 46.4857 27.8283 46.4707 27.6743 46.3589C27.5203 46.2469 27.4433 46.0574 27.4755 45.8699L28.201 41.6397L25.1275 38.6437C24.9913 38.5109 24.9423 38.3122 25.001 38.1312C25.0598 37.9502 25.2163 37.8184 25.4048 37.7909L29.6523 37.1736L31.5518 33.3246C31.636 33.1539 31.8098 33.0459 32.0003 33.0459C32.1905 33.0459 32.3645 33.1539 32.4488 33.3246L34.3483 37.1736L38.5958 37.7909C38.784 37.8181 38.9405 37.9502 38.9993 38.1312C39.058 38.3122 39.009 38.5109 38.8728 38.6437L35.7993 41.6397L36.5248 45.8699C36.5568 46.0574 36.4795 46.2469 36.3258 46.3589C36.2383 46.4222 36.135 46.4544 36.0315 46.4544ZM31.9998 43.3347C32.0798 43.3347 32.1595 43.3539 32.2325 43.3921L35.3675 45.0402L34.7685 41.5494C34.741 41.3874 34.7948 41.2217 34.9123 41.1069L37.4488 38.6346L33.9435 38.1252C33.7808 38.1016 33.64 37.9994 33.567 37.8517L31.9998 34.6756L30.4323 37.8519C30.3593 37.9994 30.2185 38.1019 30.0558 38.1254L26.5505 38.6349L29.087 41.1071C29.2048 41.2221 29.2588 41.3877 29.2308 41.5497L28.632 45.0404L31.767 43.3924C31.84 43.3539 31.9198 43.3347 31.9998 43.3347Z" fill="#434343"/>
<path d="M16.2755 25.4403C17.1754 24.5405 17.1754 23.0816 16.2755 22.1818C15.3757 21.2819 13.9168 21.2819 13.017 22.1818C12.1171 23.0816 12.1171 24.5405 13.017 25.4403C13.9168 26.3401 15.3757 26.3401 16.2755 25.4403Z" fill="#FF2F04"/>
<path d="M14.6502 26.6166C13.104 26.6166 11.8457 25.3586 11.8457 23.8121C11.8457 22.2656 13.1037 21.0076 14.6502 21.0076C16.1967 21.0076 17.4547 22.2656 17.4547 23.8121C17.4547 25.3586 16.1967 26.6166 14.6502 26.6166ZM14.6502 22.0076C13.6552 22.0076 12.8457 22.8171 12.8457 23.8121C12.8457 24.8071 13.6552 25.6166 14.6502 25.6166C15.6452 25.6166 16.4547 24.8071 16.4547 23.8121C16.4547 22.8171 15.6452 22.0076 14.6502 22.0076Z" fill="#434343"/>
<path d="M52.2236 24.3603C52.5163 23.1219 51.7497 21.8807 50.5113 21.588C49.273 21.2952 48.0318 22.0618 47.739 23.3002C47.4463 24.5386 48.2129 25.7798 49.4513 26.0725C50.6896 26.3652 51.9309 25.5986 52.2236 24.3603Z" fill="#FF2F04"/>
<path d="M49.9744 26.6166C48.4279 26.6166 47.1699 25.3586 47.1699 23.8121C47.1699 22.2656 48.4279 21.0076 49.9744 21.0076C51.5209 21.0076 52.7789 22.2656 52.7789 23.8121C52.7789 25.3586 51.5209 26.6166 49.9744 26.6166ZM49.9744 22.0076C48.9797 22.0076 48.1699 22.8171 48.1699 23.8121C48.1699 24.8071 48.9794 25.6166 49.9744 25.6166C50.9694 25.6166 51.7789 24.8071 51.7789 23.8121C51.7789 22.8171 50.9694 22.0076 49.9744 22.0076Z" fill="#434343"/>
<path d="M50.315 57.9627C51.5712 57.7603 52.4255 56.5779 52.2231 55.3217C52.0208 54.0655 50.8384 53.2112 49.5822 53.4136C48.326 53.616 47.4717 54.7984 47.674 56.0546C47.8764 57.3108 49.0588 58.1651 50.315 57.9627Z" fill="#FF2F04"/>
<path d="M49.9744 58.4925C48.4279 58.4925 47.1699 57.2345 47.1699 55.6883C47.1699 54.1418 48.4279 52.8838 49.9744 52.8838C51.5209 52.8838 52.7789 54.142 52.7789 55.6883C52.7789 57.2345 51.5209 58.4925 49.9744 58.4925ZM49.9744 53.8835C48.9797 53.8835 48.1699 54.693 48.1699 55.688C48.1699 56.683 48.9794 57.4923 49.9744 57.4923C50.9694 57.4923 51.7789 56.6828 51.7789 55.688C51.7789 54.6933 50.9694 53.8835 49.9744 53.8835Z" fill="#434343"/>
</svg>
